<svg id="Home" xmlns="http://www.w3.org/2000/svg" viewBox="0 0 85.17 85.17"><defs><style>.cls-1{fill:#fff;}</style></defs><title>behance-icon</title><g id="icons"><path class="cls-1" d="M295.25,779.23c0-4-2.73-4-2.73-4H281.27v8.62h10.55C293.64,783.84,295.25,783.25,295.25,779.23Z" transform="translate(-260.97 -745.49)"/><path class="cls-1" d="M292.52,789.79H281.27v10.33H292c1.61,0,4.59-.55,4.59-5C296.59,789.74,292.52,789.79,292.52,789.79Z" transform="translate(-260.97 -745.49)"/><path class="cls-1" d="M321.31,783.84c-6,0-6.8,5.95-6.8,5.95H327.2S327.28,783.84,321.31,783.84Z" transform="translate(-260.97 -745.49)"/><path class="cls-1" d="M303.56,745.49a42.59,42.59,0,1,0,42.59,42.59A42.59,42.59,0,0,0,303.56,745.49Zm9.29,25.13h15.94v4.76H312.85Zm-8.06,25c0,11.79-12.27,11.4-12.27,11.4H272.41V768.35h20.11c6.11,0,10.93,3.37,10.93,10.29s-5.9,7.35-5.9,7.35C305.32,786,304.79,795.58,304.79,795.58Zm16.59,6.09c6.43,0,6.2-4.15,6.2-4.15h6.8c0,11-13.22,10.27-13.22,10.27-15.87,0-14.85-14.77-14.85-14.77s0-14.84,14.85-14.84c15.63,0,13.44,16.77,13.44,16.77h-20C314.58,802.13,321.38,801.67,321.38,801.67Z" transform="translate(-260.97 -745.49)"/></g></svg>