<svg id="Contact" xmlns="http://www.w3.org/2000/svg" viewBox="0 0 666.71 645.35"><defs><style>.cls-1{fill:#ffb27d;}.cls-2{fill:#fc414a;}.cls-3{fill:#efa26f;}.cls-4{fill:#ffc197;}.cls-5{fill:#2b478b;}.cls-6{fill:#c0d8fb;}.cls-7{fill:#cbe1fd;}.cls-8{fill:#ffd3b6;}.cls-9{fill:#ce3c4a;}.cls-10{fill:#dceaff;}.cls-11{fill:#699dee;}.cls-12{fill:#9abff6;}.cls-13{fill:#9ec3f6;}.cls-14{fill:#fff;}.cls-15{fill:#d2e3fc;}</style></defs><title>character-contact</title><g id="character-contact"><path class="cls-1" d="M1520.05,3945.6s-35.24,70.5-71,119.17c-14.24,19.37-28.57,35.28-40.8,41.91-12,6.49-22.11,16.58-30.5,27.76-21.73,28.94-31.75,65.17-31.75,65.17l-91.54-138.49s3.12-135.37,14.11-158c16-33,23.76-99.68,29.92-113,4.56-9.85,17.6-60.71,18.85-64.45.54-1.61,4.88-4.08,10.51-4.08,4.52,0,12.2,4.37,14.14,13.35,9.79,45.39-2,75.33-1.86,76.66,3.45,34.88-6.93,60.77.35,67.63.27.25.77.13,1.48-.32,12.62-8.1,90.95-122.29,100.59-124.76C1452.7,3751.59,1520.05,3945.6,1520.05,3945.6Z" transform="translate(-1130.39 -3671.31)"/><path class="cls-2" d="M1373.5,4172.21s-1.25,61.54-4.82,144.42h-230.9c52.78-112.55,98.67-207.28,98.67-207.28S1367.92,4113.37,1373.5,4172.21Z" transform="translate(-1130.39 -3671.31)"/><path class="cls-1" d="M1600.09,3707l-28.35,41.56-27.82,40.78a6.34,6.34,0,0,1-5.78,2.55c-6.67-.63-14.93-10.26-21.37-15.59l-.65-.54a20.08,20.08,0,0,1-2.67-28.19l42.52-51.39h0l12.61-15.24a20.09,20.09,0,0,1,28.19-2.66l.65.53A20.09,20.09,0,0,1,1600.09,3707Z" transform="translate(-1130.39 -3671.31)"/><path class="cls-3" d="M1571.74,3748.56l-27.82,40.78a6.34,6.34,0,0,1-5.78,2.55l17.83-95.71C1556,3696.71,1559,3739.66,1571.74,3748.56Z" transform="translate(-1130.39 -3671.31)"/><path class="cls-3" d="M1449,4064.77c-14.24,19.37-28.57,35.28-40.8,41.91-12,6.49-22.11,16.58-30.5,27.76-9.65-4.5-20.65-9.78-31.4-15-13.09-6.36-13.59-24.95-.77-31.84.13-.06.25-.13.37-.2,12-6.88,24.33-31.15,24.33-31.15Z" transform="translate(-1130.39 -3671.31)"/><path class="cls-4" d="M1316.66,3727.82l-7.42,29.94s6.49,2.65,10.65.59S1327.45,3729.43,1316.66,3727.82Z" transform="translate(-1130.39 -3671.31)"/><rect class="cls-5" x="211.56" width="216.54" height="407.61" rx="28.52"/><path class="cls-6" d="M1547.75,3702.53V4045a21.11,21.11,0,0,1-21,21.12H1373.64a21.1,21.1,0,0,1-21-21.12V3702.53a21.1,21.1,0,0,1,21-21.12h153.14A21.11,21.11,0,0,1,1547.75,3702.53Z" transform="translate(-1130.39 -3671.31)"/><path class="cls-7" d="M1526.78,3681.41l-151.24,384.68h-1.9a21.1,21.1,0,0,1-21-21.12V3702.53a21.1,21.1,0,0,1,21-21.12Z" transform="translate(-1130.39 -3671.31)"/><rect class="cls-5" x="278.35" y="2.39" width="82.96" height="20.45" rx="9.48"/><path class="cls-1" d="M1586,3863.93l-4.23,1.61-28.43,10.8a16.72,16.72,0,0,1-2,.64,19.42,19.42,0,0,1-23-11.86l-.42-1.09a19.43,19.43,0,0,1,11.22-25l26.51-10.07,1.92-.73,4.23-1.61a19.42,19.42,0,0,1,25,11.22l.42,1.1A19.42,19.42,0,0,1,1586,3863.93Z" transform="translate(-1130.39 -3671.31)"/><path class="cls-8" d="M1562.89,3864.59c-4.74,1.79-13.33,5-17.92,5.64-1.3.19-3.7-.52-5.93-3a17.61,17.61,0,0,1-3.58-6.45,21.25,21.25,0,0,1-1-4.12,17.06,17.06,0,0,1,.16-4.89,4.87,4.87,0,0,1,2.71-3.49s0,0,0,0a110.85,110.85,0,0,1,17.24-6.76c4-1.11,8,.66,9.29,4.15l.6,1.63,3,8.35C1568.82,3859.16,1566.77,3863.13,1562.89,3864.59Z" transform="translate(-1130.39 -3671.31)"/><path class="cls-4" d="M1562.89,3864.59c-4.74,1.79-13.33,5-17.92,5.64-1.3.19-3.7-.52-5.93-3-.24-.56-.46-1.15-.67-1.78a21.15,21.15,0,0,1-1-4.11,17.13,17.13,0,0,1,.16-4.9,4.87,4.87,0,0,1,2.71-3.49h0a112.88,112.88,0,0,1,17.24-6.76,8.18,8.18,0,0,1,7,1.11l3,8.35C1568.82,3859.16,1566.77,3863.13,1562.89,3864.59Z" transform="translate(-1130.39 -3671.31)"/><rect class="cls-1" x="1534.57" y="3879.69" width="47.82" height="27.68" rx="12.55" transform="translate(-2098.46 -3125.16) rotate(-15.23)"/><path class="cls-8" d="M1561.22,3902.82c-4,1.08-11.3,3-15.12,3.18-1.38.08-4.16-1.09-6-4.74a15.4,15.4,0,0,1-1.12-3.09,15,15,0,0,1-.49-3.22,12.91,12.91,0,0,1,.49-3.76,3.9,3.9,0,0,1,2.48-2.5h0a96.77,96.77,0,0,1,14.64-4.08c3.35-.59,6.53,1,7.32,3.78l.57,2,1.68,5.93C1566.49,3899,1564.51,3902,1561.22,3902.82Z" transform="translate(-1130.39 -3671.31)"/><path class="cls-4" d="M1561.22,3902.82c-4,1.08-11.3,3-15.12,3.18-1.38.08-4.16-1.09-6-4.74a14.21,14.21,0,0,1-.44-3,12.93,12.93,0,0,1,.49-3.75,3.9,3.9,0,0,1,2.48-2.5h0a96.77,96.77,0,0,1,14.64-4.08,6.61,6.61,0,0,1,6.72,2.47l1.68,5.93C1566.49,3899,1564.51,3902,1561.22,3902.82Z" transform="translate(-1130.39 -3671.31)"/><path class="cls-9" d="M1214,4156.05s45.12,43.21,75.54,59.9l23-16.34v24.1s45.29,8,59.58,0V4158l-127.22-63.77Z" transform="translate(-1130.39 -3671.31)"/><path class="cls-10" d="M1381.73,4218.48c-17.53,3.59-55.3-10.17-55.3-10.17l6.09-58.85-42.68,48.88c-21.72-8.08-55.69-29.17-75.87-42.3-10-6.53-16.68-11.09-16.68-11.09,28.48-45.83,57.13-88.7,57.13-88.7,8.41,16.82,28.31,31.43,49.89,43.11,35.85,19.42,76.32,30.77,76.32,30.77C1380.62,4165.1,1381.73,4218.48,1381.73,4218.48Z" transform="translate(-1130.39 -3671.31)"/><path class="cls-1" d="M1585.29,3821.92l-.48.16-28.74,7.38c-12.63,3.25-25.7-3.59-29-15.19l-1.71-5.95c-3.2-11.14,3.69-22.79,15.43-26.56l9.49-2.44,19.25-4.94c12.64-3.25,25.7,3.59,29,15.19l1.71,5.94C1603.4,3806.5,1596.74,3818,1585.29,3821.92Z" transform="translate(-1130.39 -3671.31)"/><path class="cls-8" d="M1572.12,3813.9l-14,6.29-.08,0a14.94,14.94,0,0,1-1.69.35l-.71.09h-.3a2.22,2.22,0,0,1-1.92-3.14,13.91,13.91,0,0,0,.79-9.46l-.34-1.22a.08.08,0,0,0,0,0l-1.08-4a14.92,14.92,0,0,0-5.06-7.72c-.28-.23-.58-.45-.88-.66a4,4,0,0,1,1.17-7.14l.09,0,15.32-2.32c3.79-1,7.44,1.89,8.47,5.68l1.23,4.51,2.62,9.63C1576.8,3808.58,1575.9,3812.87,1572.12,3813.9Z" transform="translate(-1130.39 -3671.31)"/><path class="cls-4" d="M1572.12,3813.9l-14,6.29-.08,0c-.33.06-1.36.24-2.7.44a2.22,2.22,0,0,1-1.92-3.14,13.91,13.91,0,0,0,.79-9.46l-.34-1.22a.08.08,0,0,0,0,0l-1.08-4a14.92,14.92,0,0,0-5.06-7.72,3.88,3.88,0,0,1,2.2-1.56l.09,0,15.32-2.31c3.19-.87,6.28,1.06,7.79,3.95l2.62,9.63C1576.8,3808.58,1575.9,3812.87,1572.12,3813.9Z" transform="translate(-1130.39 -3671.31)"/><path class="cls-3" d="M1342,3971.41s-6.27-54.73-12.06-65.4-10.68-32.05-1.78-47.93,12-46.44,12-46.44c3.45,34.88-6.93,60.77.35,67.63.27.25.77.13,1.48-.32Z" transform="translate(-1130.39 -3671.31)"/><rect class="cls-11" x="120.17" y="96.38" width="245.11" height="114.58" rx="13.69"/><rect class="cls-12" x="256.45" y="42.81" width="108.12" height="39.06" rx="11.45"/><rect class="cls-12" x="237.42" y="320.07" width="125.68" height="48.19" rx="13.71"/><rect class="cls-2" x="278.32" y="230.93" width="125.68" height="69.17" rx="16.43"/><path class="cls-1" d="M1780.39,4316.66H1611.06c-8.12-5.45-50.29-34.21-67.74-55.65-3.7-4.55-17.23-43.71-27.62-75.51-6.49-19.86-11.76-36.86-12.65-40.76a50,50,0,0,1-.64-7.69v0c-.44-13,.16-38.08.78-58v-.35c0-.88,0-1.74.08-2.6v0a2.09,2.09,0,0,1,0-.25c.11-3.46.22-6.72.33-9.69.26-7.41.48-13,.57-15.17l0-1h0c.27-.15,8.42-4.5,19.31,3.34,2.62,1.9,5,6.48,7.27,12.45,1.42,3.82,2.75,8.2,4,12.81,4.76,17.75,8.17,39,10,44.66,2.94,9.18,37.56,49.57,39.72,52.08l.11.12v-63.77l-26.14-69.94-10.73-28.71-5.39-14.43a259.63,259.63,0,0,1-15.21-29.91,140.51,140.51,0,0,1-7.54-22.12c-.41-1.73-.76-3.45-1-5.14h0c-1-6.17-1.09-11.89.32-16.54,2.53-8.3,8.23-9.86,12.61-9.69.45,0,.89.06,1.31.1a10.4,10.4,0,0,1,1.26.25,8.64,8.64,0,0,1,2.17.9h0a8.9,8.9,0,0,1,2.84,2.66l8.65,11.31,10.73,14.06c6.52,8.57,12.57,16.56,14.23,18.9,9,12.66,33.2,53.91,33.2,53.91l28.35,1.19a18.76,18.76,0,0,1,12,5c10.08,9.41,31.81,29.78,34.47,32.81,0,1,16.89,9.11,29.93,16.34,9.33,3.94,27.06,17.91,27.06,17.91,3.67,3.25,6.47,6.47,7.88,9.56,6.08,13.22,22.56,128.25,30.44,185.11C1778.62,4303.44,1780.27,4315.71,1780.39,4316.66Z" transform="translate(-1130.39 -3671.31)"/><path class="cls-3" d="M1605.92,4017.21s26.25,42.86,29.73,44.79,17,4.63,18.53,0S1605.92,4017.21,1605.92,4017.21Z" transform="translate(-1130.39 -3671.31)"/><path class="cls-3" d="M1737.89,4090.62l-.13-.12s-17.73-14-27.06-17.91c-12-6.64-27.18-14-29.6-16,2.79,3.18,22.34,25.31,29.86,27C1717.57,4085.05,1732.58,4089.16,1737.89,4090.62Z" transform="translate(-1130.39 -3671.31)"/><path class="cls-3" d="M1584.62,4175.37v-63.78s15.15,25.34,16.31,39.24S1594.63,4187.23,1584.62,4175.37Z" transform="translate(-1130.39 -3671.31)"/><path class="cls-8" d="M1529.64,3941.33c-2.21-3.8-6.18-10.69-7.54-14.54a7.27,7.27,0,0,1,1-5.6,14.59,14.59,0,0,1,6.77-5.63,10.84,10.84,0,0,1,3.57-.65,3.78,3.78,0,0,1,3,1.77,0,0,0,0,0,0,0,111.58,111.58,0,0,1,8.22,13.77c1.56,3.26,1.07,7-1.21,8.68l-1.07.78-5.45,4C1534.72,3945.56,1531.45,3944.43,1529.64,3941.33Z" transform="translate(-1130.39 -3671.31)"/><path class="cls-4" d="M1529.64,3941.33c-2.21-3.8-6.18-10.69-7.54-14.54a7.27,7.27,0,0,1,1-5.6c.36-.29.74-.57,1.15-.86a13.46,13.46,0,0,1,2.79-1.5,10.91,10.91,0,0,1,3.58-.66,3.81,3.81,0,0,1,3.05,1.77s0,0,0,0a112.08,112.08,0,0,1,8.22,13.77,8.37,8.37,0,0,1,.54,6.19l-5.45,4C1534.72,3945.56,1531.45,3944.43,1529.64,3941.33Z" transform="translate(-1130.39 -3671.31)"/><polygon class="cls-13" points="530.87 249.28 597.76 271.15 557.69 232.1 553.63 241.64 536.41 241.72 530.87 249.28"/><polygon class="cls-14" points="597.76 271.15 545.85 231.66 490.39 218.99 597.76 271.15"/><polygon class="cls-14" points="557.69 232.1 597.76 271.15 571.05 216.44 557.69 232.1"/><polygon class="cls-13" points="54.98 350.59 0 381.67 28.34 340.22 33.61 347.89 48.77 344.92 54.98 350.59"/><polygon class="cls-14" points="0 381.67 38.68 337.74 85.24 316.78 0 381.67"/><polygon class="cls-14" points="28.34 340.22 0 381.67 13.82 328.81 28.34 340.22"/><path class="cls-14" d="M1344.76,3820.66a35.38,35.38,0,0,1-7.37,21.66,36.6,36.6,0,0,1-5.19,5.44,35.52,35.52,0,1,1,12.56-27.1Z" transform="translate(-1130.39 -3671.31)"/><path class="cls-5" d="M1323.51,3837.44l-.27-.3a5.08,5.08,0,0,0-2.46-.79c-.84-.14-2-.3-3.64-.52l-.54,0-.41,0c-.48-.24-.6-2.2-.59-4.26V3831c0-.78,0-1.55.06-2.25,0,0,0-.08,0-.12,1,.08,1.69.07,1.69.07,1.89-.15,3.07-5.22,3.49-9.32a13.77,13.77,0,0,0,.94-4.68,6,6,0,0,0-1.22-3.91,5.17,5.17,0,0,0-1.33-1.2c-.11-.12-.23-.22-.35-.33-1.76-2-8.92-9.27-13.61-5-.13-.42-1.65-5.18-9.06-3.62.46,0,3.74-.36,4.69,1-.12-.05-3-1.33-4.8-.22a4.44,4.44,0,0,0-1.65,2.68s0,0,0,0v0h0s0,0,0,0-.07.3-.1.45,0,.05,0,.07,0,0,0,0h0a7.77,7.77,0,0,0-.09,2.8c.28,1.16,2.32,4.61,3.68,4.61a4,4,0,0,0,1.54-.38,19.4,19.4,0,0,0-.55,2c-1.44,6.77,3.06,11.91,5.39,10.64,1.49-.81,2.62,1.8,2.62,1.8h0c-.22,4.95-1.58,8.18-2.59,9-.36,0-1.14.13-2.11.29h0a24.33,24.33,0,0,0-6,1.51l-.06,0a6.43,6.43,0,0,0-1.49.83s0,0,0,0h0a2.25,2.25,0,0,0-.48.5,1.14,1.14,0,0,0-.15.23,41.19,41.19,0,0,0-2.6,7.09,30.12,30.12,0,0,0,37.46-1.18A18.75,18.75,0,0,0,1323.51,3837.44Z" transform="translate(-1130.39 -3671.31)"/><rect class="cls-14" x="236.15" y="125.16" width="45.43" height="6.3" rx="2.54"/><path class="cls-14" d="M1409.91,3825.41h-41.32a2.06,2.06,0,0,1-2-2h0a2.06,2.06,0,0,1,2-2.06h41.32a2.07,2.07,0,0,1,2.06,2.06h0A2.07,2.07,0,0,1,1409.91,3825.41Z" transform="translate(-1130.39 -3671.31)"/><rect class="cls-14" x="236.15" y="159.72" width="26.66" height="4.11" rx="1.57"/><rect class="cls-14" x="269.19" y="159.72" width="41.94" height="4.11" rx="1.97"/><path class="cls-14" d="M1475,3825.41h-54.18a2.06,2.06,0,0,1-2-2h0a2.06,2.06,0,0,1,2-2.06H1475a2.07,2.07,0,0,1,2.06,2.06h0A2.07,2.07,0,0,1,1475,3825.41Z" transform="translate(-1130.39 -3671.31)"/><path class="cls-14" d="M1409.91,3844.85h-41.32a2.06,2.06,0,0,1-2-2h0a2.06,2.06,0,0,1,2-2.06h41.32a2.07,2.07,0,0,1,2.06,2.06h0A2.07,2.07,0,0,1,1409.91,3844.85Z" transform="translate(-1130.39 -3671.31)"/><path class="cls-14" d="M1475,3844.85h-54.18a2.06,2.06,0,0,1-2-2h0a2.06,2.06,0,0,1,2-2.06H1475a2.07,2.07,0,0,1,2.06,2.06h0A2.07,2.07,0,0,1,1475,3844.85Z" transform="translate(-1130.39 -3671.31)"/><rect class="cls-14" x="287.21" y="125.16" width="33.33" height="6.3" rx="2.18"/><rect class="cls-11" x="251.34" y="329.29" width="32.3" height="4.48" rx="1.81"/><path class="cls-11" d="M1412.56,4016.54h-29.37a1.46,1.46,0,0,1-1.46-1.46h0a1.46,1.46,0,0,1,1.46-1.46h29.37a1.46,1.46,0,0,1,1.47,1.46h0A1.47,1.47,0,0,1,1412.56,4016.54Z" transform="translate(-1130.39 -3671.31)"/><rect class="cls-11" x="251.34" y="349.22" width="18.95" height="2.92" rx="1.12"/><rect class="cls-11" x="274.83" y="349.22" width="29.82" height="2.92" rx="1.4"/><path class="cls-11" d="M1458.86,4016.54h-38.52a1.47,1.47,0,0,1-1.46-1.46h0a1.46,1.46,0,0,1,1.46-1.46h38.52a1.46,1.46,0,0,1,1.46,1.46h0A1.47,1.47,0,0,1,1458.86,4016.54Z" transform="translate(-1130.39 -3671.31)"/><path class="cls-11" d="M1412.56,4030.36h-29.37a1.46,1.46,0,0,1-1.46-1.46h0a1.46,1.46,0,0,1,1.46-1.46h29.37a1.46,1.46,0,0,1,1.47,1.46h0A1.47,1.47,0,0,1,1412.56,4030.36Z" transform="translate(-1130.39 -3671.31)"/><path class="cls-11" d="M1458.86,4030.36h-38.52a1.47,1.47,0,0,1-1.46-1.46h0a1.46,1.46,0,0,1,1.46-1.46h38.52a1.46,1.46,0,0,1,1.46,1.46h0A1.47,1.47,0,0,1,1458.86,4030.36Z" transform="translate(-1130.39 -3671.31)"/><rect class="cls-11" x="287.64" y="329.29" width="23.7" height="4.48" rx="1.55"/><rect class="cls-11" x="270.37" y="50.35" width="32.3" height="4.48" rx="1.81"/><path class="cls-11" d="M1431.59,3737.6h-29.38a1.47,1.47,0,0,1-1.46-1.46h0a1.46,1.46,0,0,1,1.46-1.46h29.38a1.46,1.46,0,0,1,1.46,1.46h0A1.46,1.46,0,0,1,1431.59,3737.6Z" transform="translate(-1130.39 -3671.31)"/><rect class="cls-11" x="270.37" y="70.28" width="18.95" height="2.92" rx="1.12"/><rect class="cls-11" x="293.85" y="70.28" width="29.82" height="2.92" rx="1.4"/><path class="cls-11" d="M1477.89,3737.6h-38.52a1.46,1.46,0,0,1-1.46-1.46h0a1.46,1.46,0,0,1,1.46-1.46h38.52a1.46,1.46,0,0,1,1.46,1.46h0A1.47,1.47,0,0,1,1477.89,3737.6Z" transform="translate(-1130.39 -3671.31)"/><rect class="cls-11" x="306.67" y="50.35" width="23.7" height="4.48" rx="1.55"/><rect class="cls-9" x="292.83" y="243.61" width="35.36" height="4.9" rx="1.98"/><path class="cls-9" d="M1457,3932.37h-32.17a1.6,1.6,0,0,1-1.59-1.6h0a1.6,1.6,0,0,1,1.59-1.59H1457a1.6,1.6,0,0,1,1.6,1.59h0A1.6,1.6,0,0,1,1457,3932.37Z" transform="translate(-1130.39 -3671.31)"/><rect class="cls-9" x="292.83" y="265.44" width="20.75" height="3.2" rx="1.22"/><rect class="cls-9" x="318.54" y="265.44" width="32.64" height="3.2" rx="1.54"/><path class="cls-9" d="M1507.66,3932.37h-42.17a1.6,1.6,0,0,1-1.6-1.6h0a1.6,1.6,0,0,1,1.6-1.59h42.17a1.6,1.6,0,0,1,1.6,1.59h0A1.6,1.6,0,0,1,1507.66,3932.37Z" transform="translate(-1130.39 -3671.31)"/><path class="cls-9" d="M1457,3947.5h-32.17a1.6,1.6,0,0,1-1.59-1.59h0a1.6,1.6,0,0,1,1.59-1.6H1457a1.6,1.6,0,0,1,1.6,1.6h0A1.6,1.6,0,0,1,1457,3947.5Z" transform="translate(-1130.39 -3671.31)"/><path class="cls-9" d="M1507.66,3947.5h-42.17a1.6,1.6,0,0,1-1.6-1.59h0a1.6,1.6,0,0,1,1.6-1.6h42.17a1.6,1.6,0,0,1,1.6,1.6h0A1.6,1.6,0,0,1,1507.66,3947.5Z" transform="translate(-1130.39 -3671.31)"/><path class="cls-9" d="M1457,3955.38h-32.17a1.6,1.6,0,0,1-1.59-1.6h0a1.6,1.6,0,0,1,1.59-1.6H1457a1.6,1.6,0,0,1,1.6,1.6h0A1.6,1.6,0,0,1,1457,3955.38Z" transform="translate(-1130.39 -3671.31)"/><path class="cls-9" d="M1507.66,3955.38h-42.17a1.6,1.6,0,0,1-1.6-1.6h0a1.6,1.6,0,0,1,1.6-1.6h42.17a1.6,1.6,0,0,1,1.6,1.6h0A1.6,1.6,0,0,1,1507.66,3955.38Z" transform="translate(-1130.39 -3671.31)"/><rect class="cls-9" x="332.57" y="243.61" width="25.95" height="4.9" rx="1.7"/><path class="cls-14" d="M1382.21,3702.83l-2.18,1.57-2.19-1.55a2.68,2.68,0,0,1,4.37,0Z" transform="translate(-1130.39 -3671.31)"/><path class="cls-14" d="M1380,3697.89a6.52,6.52,0,0,0-5.31,2.76l1.39,1a4.79,4.79,0,0,1,7.82,0l1.38-1A6.48,6.48,0,0,0,1380,3697.89Z" transform="translate(-1130.39 -3671.31)"/><path class="cls-14" d="M1380,3690.64a13.71,13.71,0,0,0-11.23,5.84l1.38,1a12.06,12.06,0,0,1,19.65-.08l1.37-1A13.73,13.73,0,0,0,1380,3690.64Z" transform="translate(-1130.39 -3671.31)"/><path class="cls-14" d="M1380,3694.61a9.8,9.8,0,0,0-8,4.14l1.38,1a8.15,8.15,0,0,1,13.22,0l1.37-1A9.82,9.82,0,0,0,1380,3694.61Z" transform="translate(-1130.39 -3671.31)"/><path class="cls-14" d="M1367.78,3934a13.88,13.88,0,0,0,2.89,8.51,13.71,13.71,0,0,0,2,2.13,13.94,13.94,0,0,0,17,.79l.34-.24a14.38,14.38,0,0,0,2.72-2.68,13.95,13.95,0,1,0-25-8.51Z" transform="translate(-1130.39 -3671.31)"/><path class="cls-11" d="M1385.5,3943l-1.28-1.14-.32.06a8,8,0,0,0-.75-.47c.08-.52.15-1,.21-1.43a25,25,0,0,0,.22-2.54c.68,0,1.14-.1,1.14-.1,1.29-.3,1.35-4.7,1-7a1.68,1.68,0,0,0,.72-.14c1-.43,1-1.9,1-1.9a1.7,1.7,0,0,1-.7.69s1.63-2.23-.26-3.76-3.81-.53-4.91-.46c-2.41.14-4,.29-4.75,1.87s-.47,5.85,1,7.43c0,.15,0,.29.07.44a2.88,2.88,0,0,0,.59,1.4,10,10,0,0,1-1.78,4.15,6.09,6.09,0,0,0-1.28,1.38h0a14.09,14.09,0,0,0-1.8,3.95,0,0,0,0,1,0,0,13.43,13.43,0,0,0,2.55,1.4l.17.07,0,0,.3.11c.23.09.47.18.71.25s.5.16.75.23l.36.08.31.07h0l.21,0,.5.08.11,0,.27,0,.39,0,.44,0,.41,0h1.33l.44,0a14,14,0,0,0,5.25-1.59A14.34,14.34,0,0,0,1385.5,3943Z" transform="translate(-1130.39 -3671.31)"/><path class="cls-14" d="M1504.73,4015.08a14,14,0,0,0,2.92,8.56,13.45,13.45,0,0,0,2,2.15,14,14,0,0,0,17.46.55,13.75,13.75,0,0,0,2.74-2.7,14,14,0,1,0-25.17-8.56Z" transform="translate(-1130.39 -3671.31)"/><path class="cls-2" d="M1526,4023a.26.26,0,0,0-.07-.11,1,1,0,0,0-.22-.23h0a2.86,2.86,0,0,0-.7-.38h0a11,11,0,0,0-2.82-.71c-.45-.07-.81-.12-1-.13-.47-.38-1.11-1.89-1.21-4.2h0s.53-1.22,1.23-.84c1.08.59,3.18-1.81,2.51-5a6.9,6.9,0,0,0-.26-.93,2,2,0,0,0,.72.17c.63,0,1.59-1.61,1.72-2.15s0-2.32-.88-2.85-2.18.08-2.24.1c.43-.6,1.9-.48,2.17-.45-3.43-.71-4.14,1.49-4.2,1.69-2.19-2-5.53,1.44-6.35,2.35l-.17.16a2.24,2.24,0,0,0-.61.55,2.82,2.82,0,0,0-.57,1.82,6.55,6.55,0,0,0,.43,2.19c.2,1.91.75,4.27,1.64,4.34a7.38,7.38,0,0,0,.78,0s0,0,0,.06c0,.32,0,.68,0,1v.22c0,1-.06,1.87-.28,2h-.19l-.25,0-1.7.24c-.76.13-1,.22-1.14.37a1.85,1.85,0,0,0-.14.14,8.77,8.77,0,0,0-2.48,3.26,14,14,0,0,0,17.46.55A18.35,18.35,0,0,0,1526,4023Z" transform="translate(-1130.39 -3671.31)"/><path class="cls-14" d="M1504.73,3732.81a14,14,0,0,0,22.43,11.26,13.44,13.44,0,0,0,2.74-2.69,14,14,0,1,0-25.17-8.57Z" transform="translate(-1130.39 -3671.31)"/><path class="cls-2" d="M1526,3740.77a.34.34,0,0,0-.07-.11,1,1,0,0,0-.22-.23h0a3.73,3.73,0,0,0-.7-.38h0a11.49,11.49,0,0,0-2.82-.71h0c-.45-.07-.81-.11-1-.13a1.41,1.41,0,0,1-.36-.46h0a8.76,8.76,0,0,1-.85-3.72h0s.53-1.22,1.23-.84c1.08.6,3.18-1.8,2.51-4.95a6.66,6.66,0,0,0-.26-.94,2,2,0,0,0,.72.17c.63,0,1.59-1.61,1.72-2.15s0-2.32-.88-2.84a2.81,2.81,0,0,0-2.24.1c.43-.61,1.91-.48,2.17-.46-3.43-.71-4.14,1.5-4.2,1.69-2.19-2-5.53,1.44-6.35,2.35l-.17.16a2.64,2.64,0,0,0-.61.55,2.83,2.83,0,0,0-.57,1.83,6.53,6.53,0,0,0,.43,2.18c.2,1.91.75,4.28,1.64,4.35,0,0,.31,0,.78,0,0,0,0,0,0,.06,0,.32,0,.68,0,1.05v.21c0,1-.06,1.87-.28,2l-.19,0-.25,0c-.77.1-1.31.18-1.7.25a2.32,2.32,0,0,0-1.14.36l-.14.14a8.83,8.83,0,0,0-2.48,3.27l.41.33.07,0a3.65,3.65,0,0,0,.31.24,1.88,1.88,0,0,0,.23.16,1.88,1.88,0,0,0,.23.16l.34.22.23.15.3.17.33.19h0l0,0,.26.13h0l.08,0,.16.07a.61.61,0,0,0,.14.07l.34.16.35.14.16.06.16.06.32.11.34.11.29.09h0l.18.05q.51.13,1,.24l.46.08.11,0h0l.3,0h.11l.27,0h.13l.49,0h.28l.49,0a14,14,0,0,0,8.38-2.79A18.35,18.35,0,0,0,1526,3740.77Z" transform="translate(-1130.39 -3671.31)"/><path class="cls-3" d="M1695.32,4290.47l-50.59,26.19h-33.67c-8.12-5.45-50.29-34.21-67.74-55.65-3.7-4.55-17.23-43.71-27.62-75.51v0c1.38,4.22,30.39,66,38.65,73S1606,4306.42,1618,4306c11.6-.39,73.37-14.61,77.19-15.49Z" transform="translate(-1130.39 -3671.31)"/><path class="cls-15" d="M1797.1,4316.66H1614.73c9.15-3.59,44.14-17,80.41-26.15l.18,0c31.15-7.88,63.22-12.66,80.64-5.49l.12.19Z" transform="translate(-1130.39 -3671.31)"/><path class="cls-3" d="M1503.3,4075.78h0c3.07-1.13,7.39-1.87,9.49,1.64,3.26,5.45-8.88,53.58-10.39,59.64Z" transform="translate(-1130.39 -3671.31)"/><path class="cls-4" d="M1504.24,4049.9l-1,29.11s6.13,1,9.61-1.6S1514.43,4049.56,1504.24,4049.9Z" transform="translate(-1130.39 -3671.31)"/><path class="cls-7" d="M1381.73,4218.48c-17.53,3.59-55.3-10.17-55.3-10.17l6.09-58.85-42.68,48.88c-21.72-8.08-55.69-29.17-75.87-42.3,51.72-5.63,90.34-56.68,90.34-56.68,35.85,19.42,76.32,30.77,76.32,30.77C1380.62,4165.1,1381.73,4218.48,1381.73,4218.48Z" transform="translate(-1130.39 -3671.31)"/><path class="cls-2" d="M1261.47,4165a7.11,7.11,0,1,1,7,7.17A7.1,7.1,0,0,1,1261.47,4165Z" transform="translate(-1130.39 -3671.31)"/></g></svg>