<svg id="Portfolio" xmlns="http://www.w3.org/2000/svg" viewBox="0 0 888.02 488.69"><defs><style>.cls-1{opacity:0.68;}.cls-2{fill:#fff;}.cls-3{fill:#75a1de;}.cls-4{fill:#f09959;}.cls-5{fill:#e38540;}.cls-6{fill:#fc414a;}.cls-7{fill:#ce3c4a;}.cls-8{fill:#6791c9;}.cls-9{fill:#95bef5;}.cls-10{fill:#2e5b9a;}.cls-11{fill:#f39892;}</style></defs><title>character-portfolio</title><g id="character-portfolio"><g id="Réteg_37" data-name="Réteg 37"><g class="cls-1"><path class="cls-2" d="M850.09,2653.36s195.82-123,62-254.86-312.91-266.67-433-214.52S369.86,2302.06,238,2397.51s-101.35,171.22-77.73,209.6,27.55,48.22,27.55,48.22Z" transform="translate(-70.85 -2172.49)"/></g></g><path class="cls-3" d="M670.8,2650l-80.35.15a2.79,2.79,0,0,1-.24-5.37l80-7.19c6.49-.58,12.41,1.93,12.58,5.64S677.33,2650,670.8,2650Z" transform="translate(-70.85 -2172.49)"/><path class="cls-4" d="M566.77,2638.61c2.77-.69,7.85-15.85,7.85-15.85s-58-19.56-82.64-32.31L457.7,2630.1C501.74,2641.08,564.71,2639.13,566.77,2638.61Z" transform="translate(-70.85 -2172.49)"/><path class="cls-4" d="M557.84,2616.76c14.28,3.69,37-5.54,41.25-4.61s22,10.15,26.24,14.77,19.3,18.93,16.6,19.85-21.62-12.93-23.93-13.39-3.48,2.77-22.39,6.46-41.77-5.84-41.77-5.84Z" transform="translate(-70.85 -2172.49)"/><path class="cls-5" d="M580.56,2631.07s22-5.54,24.7-4.61,19.1,4.61,30.49,17.54c-10.81-3.23-26.24-4.16-30.49-4.16S580.56,2631.07,580.56,2631.07Z" transform="translate(-70.85 -2172.49)"/><path class="cls-4" d="M585.82,2621.84c9.39,12,33.24,15.7,36.85,19.85s-8.68,2.39-15.17,1.85c-16.52-1.39-28.06,5.31-41.43,1.15s-16.38-14.08-16.38-14.08Z" transform="translate(-70.85 -2172.49)"/><path class="cls-6" d="M409.76,2408.77c-42.37,20.82-61.76,36.05-74.91,92.83s-13.85,110.79-6.93,151c47,1.37,181.83,6.45,181.83,6.45s-2.56-82.46-16.34-147.7c-13.15-62.32-31.85-86.56-47.78-97.64S409.76,2408.77,409.76,2408.77Z" transform="translate(-70.85 -2172.49)"/><path class="cls-7" d="M420,2602c-15.18-15.24-11.07-118.41-36-164.8l-46.39,86.55-14,72a326.47,326.47,0,0,0,4.33,56.77,1.85,1.85,0,0,0,2,1.52c38.3-3.36,40.44-20,162.77-38.47C495.56,2615.17,430.35,2612.37,420,2602Z" transform="translate(-70.85 -2172.49)"/><path class="cls-2" d="M405.73,2408.79c-5.37,12.53,5.54,28.93,22.77,41.86s27.7,5.84,26.78-4.31-1.85-20.93-5.85-27.39-36-12-36-12S406.65,2406.64,405.73,2408.79Z" transform="translate(-70.85 -2172.49)"/><path class="cls-4" d="M426.2,2346l-16.44,62.77a14.4,14.4,0,0,0,1.2,12.74c6.69,10.81,21.09,31.58,31.39,28.83,13.85-3.7,4.62-29.55,4.62-29.55l18.47-65.09Z" transform="translate(-70.85 -2172.49)"/><path class="cls-5" d="M451.37,2349.88l-16.4-6.64L430,2356.05c2.26,54.56,9.21,76.82,19.88,83,.57-8.42-2.95-18.29-2.95-18.29l13.39-48.48Z" transform="translate(-70.85 -2172.49)"/><path class="cls-4" d="M496.94,2374.47c-3.2,21.67-11.73,40.23-27.21,38s-42.05-20.42-38.85-42.09,37.94-47.61,53.42-45.33S500.14,2352.8,496.94,2374.47Z" transform="translate(-70.85 -2172.49)"/><path class="cls-4" d="M379.16,2455.9c1.24-4.92-18.47-7.86-21.61-3.87-31,39.43-79.23,146-68.41,165.21,12.47,22.16,146.75-6.94,149.52-7.63s-4.85-21.47-4.85-21.47-75.25,1.38-87.94-7.16C385.34,2506.89,369.81,2493.19,379.16,2455.9Z" transform="translate(-70.85 -2172.49)"/><path class="cls-6" d="M371.54,2433.74c-32.57,14.6-67.85,109.41-67.85,109.41s8.31,2.08,35.31,11.08c11.23,3.74,22.1,7.21,22.1,7.21s25.86-33.55,34-59.84C405.56,2467.74,391.63,2424.74,371.54,2433.74Z" transform="translate(-70.85 -2172.49)"/><path class="cls-2" d="M307.18,2534.25c30.46,3.93,48.66,14.54,57.91,21.78,1.39-1.93,3.08-4.32,4.94-7.05a75.56,75.56,0,0,0-40.63-19.55c-8.23-1.15-14.5-1.89-19.25-2.37C309,2529.73,308,2532.15,307.18,2534.25Z" transform="translate(-70.85 -2172.49)"/><path class="cls-2" d="M314.17,2517.74c-.52,1.19-1,2.34-1.52,3.47,26.76-1.07,52.43,12,58.92,19.92l2,2.49c.67-1,1.35-2.09,2-3.17-4.39-4.33-12.18-11.27-20.08-14.71C339.41,2518.69,316.25,2517.81,314.17,2517.74Z" transform="translate(-70.85 -2172.49)"/><polygon class="cls-3" points="422.75 442.81 388.59 442.81 383.51 379.02 428.29 379.02 422.75 442.81"/><path class="cls-4" d="M429.66,2588.37c9.46-.23,24.93-11.08,30.24-14.08s35.31-9.46,36.7-6.23-25.16,9.92-25.16,9.92l19.85.93s5.77,8.77,6.23,14.54-1.85,14.08-1.85,14.08l-8.77-7.85s-7.15,3.92-16.16,9.23-25.15,2.08-32.08.7-23.08-6.47-23.08-6.47Z" transform="translate(-70.85 -2172.49)"/><path class="cls-5" d="M305.94,2585.37s15.31-8.85,30.7-6.69c8.82,1.23,9.77,2.67,9.23,2.3,1.91-3.57,3.68-7,5.34-10.31C343.19,2571,322.64,2573.21,305.94,2585.37Z" transform="translate(-70.85 -2172.49)"/><path class="cls-8" d="M789.24,2476.65v157.19c0,5.23-4.92,9.47-11,9.47h-33c-5.63,0-10.19,3.92-10.19,8.77h47.49c10.23,0,18.52-7.13,18.52-15.93v-159.5Z" transform="translate(-70.85 -2172.49)"/><path class="cls-9" d="M765.1,2611.27l-5.24-1c-3.46-.65-5.66-3.63-4.89-6.6L796,2444.11c.77-3,4.22-4.87,7.68-4.21l5.24,1c3.46.66,5.66,3.63,4.9,6.6l-41.08,159.56C772,2610,768.56,2611.93,765.1,2611.27Z" transform="translate(-70.85 -2172.49)"/><path class="cls-3" d="M766.53,2611.55l-.61-.12c-2.67-.51-4.38-2.81-3.78-5.1l41.7-162c.6-2.3,3.26-3.77,5.94-3.26l.61.12c2.67.51,4.37,2.81,3.78,5.1l-41.7,162C771.87,2610.59,769.2,2612.05,766.53,2611.55Z" transform="translate(-70.85 -2172.49)"/><path class="cls-10" d="M875.87,2661.18H170.35a5.91,5.91,0,0,1,0-11.82H875.87a5.91,5.91,0,1,1,0,11.82Z" transform="translate(-70.85 -2172.49)"/><path class="cls-4" d="M433.31,2318.94c-32,19.82-11.73,41.27-20.23,78.09,5.22,1.79,10.92-8.49,14.56-16.59s6.88-19.83,8.1-19.42,3.24,18.61,3.24,18.61l4.85,2.43s6.88-12.14,6.48-15-6.07-16.59.81-23.07c4.41-4.16,22.66,4.86,22.66,4.86L456,2323.39Z" transform="translate(-70.85 -2172.49)"/><g id="Réteg_27" data-name="Réteg 27"><path class="cls-10" d="M432.83,2374.74c-2.85-.07-6.48,7.63-15.2,17.11-.81.88-6.43,6.71-6.4,4.53.43-29.7-13.6-40.78-6.09-69.89,5.54-21.46,19.16-17.91,19.16-17.91s11.33-17.08,38.86-11.35c18.44,3.84,34.1,13.28,52.65,20.74s-29.09,45.48-51.91,26.31-15.12,17.46-19.41,19.66-3.21-8.83-7.37,8.86" transform="translate(-70.85 -2172.49)"/></g><path class="cls-4" d="M441.53,2364c1.38,7.24-1.32,13.84-6,14.74s-9.67-4.24-11.05-11.49,1.33-13.84,6.05-14.74S440.15,2356.79,441.53,2364Z" transform="translate(-70.85 -2172.49)"/><path class="cls-10" d="M512.47,142.92h179a3.71,3.71,0,0,1,3.71,3.71V250.26a3.71,3.71,0,0,1-3.71,3.71h-179a3.7,3.7,0,0,1-3.7-3.7V146.62A3.71,3.71,0,0,1,512.47,142.92Z"/><rect class="cls-2" x="514.47" y="160.78" width="174.97" height="89.78" rx="3.23"/><rect class="cls-2" x="516.46" y="149.19" width="6.95" height="6.25" rx="1.51"/><rect class="cls-2" x="529.09" y="149.19" width="6.95" height="6.25" rx="1.51"/><rect class="cls-2" x="541.73" y="149.19" width="6.95" height="6.25" rx="1.51"/><path class="cls-10" d="M754.36,2417.76H591.25v-79.2H754.36Zm-162.52-.59H753.77v-78H591.84Z" transform="translate(-70.85 -2172.49)"/><rect class="cls-10" x="520.7" y="228.96" width="162.52" height="0.58"/><rect class="cls-10" x="520.7" y="213.24" width="162.52" height="0.58"/><rect class="cls-10" x="520.7" y="197.51" width="162.52" height="0.58"/><rect class="cls-10" x="520.7" y="181.79" width="162.52" height="0.58"/><rect class="cls-10" x="659.71" y="166.36" width="0.58" height="78.62"/><rect class="cls-10" x="636.49" y="166.36" width="0.58" height="78.62"/><rect class="cls-10" x="613.28" y="166.36" width="0.58" height="78.62"/><rect class="cls-10" x="590.06" y="166.36" width="0.58" height="78.62"/><rect class="cls-10" x="566.84" y="166.36" width="0.58" height="78.62"/><rect class="cls-10" x="543.62" y="166.36" width="0.58" height="78.62"/><path class="cls-6" d="M748,2348.78h-5.47a3.79,3.79,0,1,1,0-7.58H748a3.79,3.79,0,1,1,0,7.58Z" transform="translate(-70.85 -2172.49)"/><rect class="cls-6" x="667.89" y="200.44" width="13.04" height="7.58" rx="1.81"/><rect class="cls-10" x="546.26" y="184.31" width="17.98" height="11.19" rx="2.58"/><rect class="cls-2" x="548.79" y="185.88" width="12.91" height="8.04" rx="1.85"/><rect class="cls-10" x="639.33" y="231.37" width="17.98" height="11.19" rx="2.58"/><rect class="cls-2" x="641.86" y="232.95" width="12.91" height="8.04" rx="1.85"/><path class="cls-10" d="M680.56,2360.06h-10a1.24,1.24,0,1,1,0-2.47h10a1.24,1.24,0,1,1,0,2.47Z" transform="translate(-70.85 -2172.49)"/><path class="cls-10" d="M680.56,2363.94h-10a1.24,1.24,0,1,1,0-2.47h10a1.24,1.24,0,1,1,0,2.47Z" transform="translate(-70.85 -2172.49)"/><path class="cls-10" d="M658.35,2406.86h-10a1.24,1.24,0,1,1,0-2.47h10a1.24,1.24,0,1,1,0,2.47Z" transform="translate(-70.85 -2172.49)"/><path class="cls-10" d="M658.35,2410.74h-10a1.24,1.24,0,1,1,0-2.47h10a1.24,1.24,0,1,1,0,2.47Z" transform="translate(-70.85 -2172.49)"/><path class="cls-10" d="M606.26,2377.51h-10a1.24,1.24,0,1,1,0-2.47h10a1.24,1.24,0,1,1,0,2.47Z" transform="translate(-70.85 -2172.49)"/><path class="cls-10" d="M606.26,2381.39h-10a1.24,1.24,0,1,1,0-2.47h10a1.24,1.24,0,1,1,0,2.47Z" transform="translate(-70.85 -2172.49)"/><path class="cls-10" d="M703.3,2360.06h-10a1.24,1.24,0,0,1,0-2.47h10a1.24,1.24,0,1,1,0,2.47Z" transform="translate(-70.85 -2172.49)"/><path class="cls-10" d="M703.3,2363.94h-10a1.24,1.24,0,0,1,0-2.47h10a1.24,1.24,0,1,1,0,2.47Z" transform="translate(-70.85 -2172.49)"/><rect class="cls-6" x="545.99" y="216.13" width="19.57" height="11.37" rx="2.34"/><path class="cls-2" d="M625.57,2398.11h0a1.24,1.24,0,0,1-.84-.4l-2.78-3.16a1.17,1.17,0,0,1,1.76-1.55l2,2.24,5.06-5a1.17,1.17,0,0,1,1.64,1.67l-6,5.82A1.15,1.15,0,0,1,625.57,2398.11Z" transform="translate(-70.85 -2172.49)"/><rect class="cls-6" x="615.53" y="168.27" width="19.57" height="11.37" rx="2.34"/><path class="cls-2" d="M695.11,2350.25h0a1.2,1.2,0,0,1-.84-.4l-2.78-3.16a1.17,1.17,0,1,1,1.75-1.54l2,2.23,5.07-5a1.16,1.16,0,0,1,1.65,0,1.17,1.17,0,0,1,0,1.66l-6,5.82A1.18,1.18,0,0,1,695.11,2350.25Z" transform="translate(-70.85 -2172.49)"/><path class="cls-10" d="M700.92,2393.9a5.29,5.29,0,1,1-5.29-5.29A5.29,5.29,0,0,1,700.92,2393.9Z" transform="translate(-70.85 -2172.49)"/><path class="cls-10" d="M632.44,2410a5.29,5.29,0,1,1-5.29-5.29A5.29,5.29,0,0,1,632.44,2410Z" transform="translate(-70.85 -2172.49)"/><path class="cls-10" d="M588.23,2256.44H527.3a2.77,2.77,0,0,1,0-5.54h60.93a2.77,2.77,0,0,1,0,5.54Z" transform="translate(-70.85 -2172.49)"/><path class="cls-10" d="M747.5,2490.5H686.56a2.77,2.77,0,1,1,0-5.54H747.5a2.77,2.77,0,1,1,0,5.54Z" transform="translate(-70.85 -2172.49)"/><path class="cls-10" d="M747.5,2500.65H686.56a2.77,2.77,0,0,1,0-5.54H747.5a2.77,2.77,0,0,1,0,5.54Z" transform="translate(-70.85 -2172.49)"/><path class="cls-10" d="M747.5,2511.73H686.56a2.77,2.77,0,0,1,0-5.54H747.5a2.77,2.77,0,0,1,0,5.54Z" transform="translate(-70.85 -2172.49)"/><path class="cls-10" d="M627.47,2267.06H527.3a2.77,2.77,0,0,1,0-5.54H627.47a2.77,2.77,0,0,1,0,5.54Z" transform="translate(-70.85 -2172.49)"/><path class="cls-7" d="M195,2420.58c-15.92,14.54-9,29.08,2.77,56.09s13.85,126.71,13.85,126.71L201.9,2602s1.38-102.48-11.77-130.18-18.7-41.55-30.47-32.54S195,2420.58,195,2420.58Z" transform="translate(-70.85 -2172.49)"/><path class="cls-6" d="M203.72,2401.75c-1.93-8.61-13.42-17.94-28.78-25.85,2.29,12.71,9.61,33.49,2,37.76-10.22,5.75-1-23.27-4.94-39.22a189.66,189.66,0,0,0-47.75-15.66,1.22,1.22,0,0,0,.07.17c9,22.85,20.77,31.86,15.92,35.32-3.65,2.6-15.52-23.79-31.21-37.32-11.77-.63-21.73,1-27.62,5.63-9.11,7.21-15.22,13.61-6.06,35.56a41.16,41.16,0,0,0,19.88,7.21c20.78,2.07,30.47,2.77,15.93,9.69-7.12,3.39-19.06-.19-28.73-2.37,3.14,5.78,7,12.33,11.68,19.79a73.32,73.32,0,0,0,9.74,12.38c6.69,1.29,12.53,1.3,15.62,0,9.69-4.16,34.62-17.32,40.85-11.78s-46.16,8.86-42.54,22.64c25.33,14.59,54.32,7.65,59.44-5.75C184.14,2431.93,209.55,2427.69,203.72,2401.75Z" transform="translate(-70.85 -2172.49)"/><path class="cls-7" d="M151.35,2500.21c27.7-20.77,56.09-1.38,70.63,20.77s4.15,72,4.15,72-5.54,0-5.54-2.08,15.24-58.86-20.77-84.48c-22.52-16-38.78-8.31-40.85-.69s9,21.47,9,21.47Z" transform="translate(-70.85 -2172.49)"/><path class="cls-6" d="M215.05,2457.51c-27.69,0-36.69,42.93-29.08,67.86s18,71.32,18,71.32l6.92-6.92s-26.31-65.09-20.08-94.18,21.46-33.93,24.23-33.93S215.05,2457.51,215.05,2457.51Z" transform="translate(-70.85 -2172.49)"/><path class="cls-7" d="M191.82,2525.56a19.91,19.91,0,0,0-7.29-6.12,57.12,57.12,0,0,0,1.44,5.93c3.47,11.36,7.52,27.17,10.89,41,.31-1.77.78-4.51,1.51-8.72.18-1,.31-2.08.41-3.23A267,267,0,0,1,191.82,2525.56Z" transform="translate(-70.85 -2172.49)"/><path class="cls-6" d="M184.25,2525.77c-52.62-22.16-24.9-52.56-71.29-32.48-3.27,1.41-7.25,5-11.24,9.9a34.65,34.65,0,0,0,14.7,1.18c13.85-2.08,9,9-13.85,11.77a51.08,51.08,0,0,0-10.71,2.26c-10.88,20.9-15.79,48.42,7.25,58a52.24,52.24,0,0,0,16.4,3.36c7.1-5.65-1.74-38.34,9.22-33.83,10.52,4.33-3.3,28-1.4,34a152.08,152.08,0,0,0,32.87-4.61c4.35-2.44,7.67-5.7,8.69-10,3.46-14.54-19.39-23.54-20.08-36-.64-11.45,8.38,25.21,32.25,30.61C198.65,2549.81,208.85,2536.13,184.25,2525.77Z" transform="translate(-70.85 -2172.49)"/><path class="cls-6" d="M221.75,2486.59c-5.54-11.77,9-14.54,8.31-5.54-.62,8-.68,27.37,7.5,32.65,14.1-1.53,33.3-7.22,47.81-15.88a5.87,5.87,0,0,0-.61-3.61c-6.23-12.46-46.39-22.85-33.93-27,9.93-3.3,27.32,16.23,41.34,26.06,8.42-6.38,14.06-14,14.06-22.5,0-11.5-14-24.52-32.06-30.75-8.13.82-15.69,5.27-27.49,12-17.44,9.88-13.41-6.09,3.08-15.58-14.23.74-28.42,6.82-38.89,21.35,0,0,1,6.21-5.58,15.81-17.93,26.21,2.76,41.51,27.49,40.51C231.39,2507.16,225.58,2494.73,221.75,2486.59Z" transform="translate(-70.85 -2172.49)"/><path class="cls-7" d="M153,2499c-13.55,10.46-28.59,22.69-47.05,31s-14.78,35.4-14.78,35.4-2.77-23.39,12.62-31.4,25.55-17.54,37.24-19.38a168.84,168.84,0,0,0,18.16-3.7s-3.69-7.38-1.54-10.15S153,2499,153,2499Z" transform="translate(-70.85 -2172.49)"/><path class="cls-7" d="M86.27,2376.16c49.55,13.24,85.87,44.94,92.64,52.63s6.77,9.85,6.77,9.85l-5.23,9.85-2.47-1.23s4-8.31-6.46-19.09c-18-18.57-40-33.23-55.09-39.7S86.27,2376.16,86.27,2376.16Z" transform="translate(-70.85 -2172.49)"/><path class="cls-11" d="M108.89,410.07h67.68a0,0,0,0,1,0,0v43.5a24.37,24.37,0,0,1-24.37,24.37H133.27a24.37,24.37,0,0,1-24.37-24.37v-43.5A0,0,0,0,1,108.89,410.07Z"/></g></svg>