<svg id="Skills" xmlns="http://www.w3.org/2000/svg" viewBox="0 0 144.23 144.23"><defs><style>.cls-1{fill:#fc414a;}.cls-2{fill:#fff;}</style></defs><title>developer-icon</title><g id="icons"><g id="developer"><circle class="cls-1" cx="72.11" cy="72.11" r="72.11"/><path class="cls-2" d="M1504.72,1413.17h-81.13a5.07,5.07,0,0,0-5.06,5.06V1474a5.07,5.07,0,0,0,5.06,5.06h81.13a5.07,5.07,0,0,0,5.06-5.06v-55.76A5.07,5.07,0,0,0,1504.72,1413.17Zm-81.13,3.73h81.13a1.34,1.34,0,0,1,1.34,1.33V1424h-83.81v-5.74A1.34,1.34,0,0,1,1423.59,1416.9Zm81.13,58.43h-81.13a1.35,1.35,0,0,1-1.34-1.34v-46.3h83.81V1474A1.34,1.34,0,0,1,1504.72,1475.33Z" transform="translate(-1392.04 -1374)"/><path class="cls-2" d="M1453.56,1439.67a1.87,1.87,0,0,0-2.63,0l-8.41,8.41a1.86,1.86,0,0,0,0,2.64l8.41,8.41a1.86,1.86,0,0,0,2.63-2.64l-7.09-7.09,7.09-7.09A1.86,1.86,0,0,0,1453.56,1439.67Z" transform="translate(-1392.04 -1374)"/><path class="cls-2" d="M1476.06,1439.67a1.87,1.87,0,0,0-2.64,2.64l7.1,7.09-7.1,7.09a1.87,1.87,0,0,0,2.64,2.64l8.41-8.41a1.88,1.88,0,0,0,0-2.64Z" transform="translate(-1392.04 -1374)"/><path class="cls-2" d="M1468.74,1439.33a1.87,1.87,0,0,0-2.51.82l-8.8,17.43a1.85,1.85,0,0,0,.82,2.5,1.82,1.82,0,0,0,.84.2,1.85,1.85,0,0,0,1.66-1l8.81-17.43A1.87,1.87,0,0,0,1468.74,1439.33Z" transform="translate(-1392.04 -1374)"/></g></g></svg>