<svg id="Home" xmlns="http://www.w3.org/2000/svg" viewBox="0 0 84.69 84.69"><defs><style>.cls-1,.cls-3{fill:#fc414a;}.cls-1,.cls-2{fill-rule:evenodd;}.cls-2{fill:#fff;}</style></defs><title>logo</title><g id="Logo"><path class="cls-1" d="M180.92,120.26l-4.64-5.5a35.12,35.12,0,0,1-8.68,5.36l2.85,6.61A42,42,0,0,0,180.92,120.26Z" transform="translate(-111.3 -45.53)"/><path class="cls-1" d="M193.45,102.31l-6.77-2.46a40.79,40.79,0,0,1-2.1,4.68,40.37,40.37,0,0,1-2.74,4.32l5.78,4.29a42.27,42.27,0,0,0,5.83-10.83Z" transform="translate(-111.3 -45.53)"/><path class="cls-1" d="M195.34,80.57l-7.09,1.25a34.89,34.89,0,0,1,.29,10.2l7.15.85A41.59,41.59,0,0,0,195.34,80.57Z" transform="translate(-111.3 -45.53)"/><path class="cls-1" d="M121.25,115.15l5.51-4.64a35.12,35.12,0,0,1-5.36-8.68l-6.61,2.85A42.12,42.12,0,0,0,121.25,115.15Z" transform="translate(-111.3 -45.53)"/><path class="cls-1" d="M139.21,127.68l2.46-6.77a34.91,34.91,0,0,1-9-4.84l-4.29,5.78a46.18,46.18,0,0,0,5.2,3.31A48.09,48.09,0,0,0,139.21,127.68Z" transform="translate(-111.3 -45.53)"/><path class="cls-1" d="M161,129.57l-1.26-7.09a34.81,34.81,0,0,1-10.19.29l-.85,7.15A41.6,41.6,0,0,0,161,129.57Z" transform="translate(-111.3 -45.53)"/><path class="cls-1" d="M126.37,55.49,131,61a35.12,35.12,0,0,1,8.68-5.36L136.83,49A42,42,0,0,0,126.37,55.49Z" transform="translate(-111.3 -45.53)"/><path class="cls-1" d="M113.84,73.44l6.77,2.46a42.53,42.53,0,0,1,2.09-4.68,38.94,38.94,0,0,1,2.75-4.32l-5.78-4.29a42.27,42.27,0,0,0-5.83,10.83Z" transform="translate(-111.3 -45.53)"/><path class="cls-1" d="M111.94,95.18l7.1-1.25a34.89,34.89,0,0,1-.29-10.2l-7.15-.85A41.92,41.92,0,0,0,111.94,95.18Z" transform="translate(-111.3 -45.53)"/><path class="cls-1" d="M186,60.6l-5.51,4.64a34.53,34.53,0,0,1,5.36,8.68l6.62-2.85A42.16,42.16,0,0,0,186,60.6Z" transform="translate(-111.3 -45.53)"/><path class="cls-1" d="M168.08,48.07l-2.46,6.77a42.53,42.53,0,0,1,4.68,2.09,43.21,43.21,0,0,1,4.32,2.75l4.29-5.78a47.1,47.1,0,0,0-5.2-3.31A48.09,48.09,0,0,0,168.08,48.07Z" transform="translate(-111.3 -45.53)"/><path class="cls-1" d="M146.34,46.18l1.25,7.09a34.88,34.88,0,0,1,10.2-.29l.85-7.15A41.58,41.58,0,0,0,146.34,46.18Z" transform="translate(-111.3 -45.53)"/><path class="cls-2" d="M153.64,66.61a21.27,21.27,0,1,0,21.27,21.27A21.27,21.27,0,0,0,153.64,66.61Zm0,37.05a15.79,15.79,0,1,1,15.78-15.78A15.79,15.79,0,0,1,153.64,103.66Z" transform="translate(-111.3 -45.53)"/><circle class="cls-3" cx="42.34" cy="42.34" r="4.8"/></g></svg>