<svg id="Home" xmlns="http://www.w3.org/2000/svg" viewBox="0 0 85.03 82.93"><defs><style>.cls-1{fill:#fff;}</style></defs><title>github-icon</title><g id="icons"><path class="cls-1" d="M459.93,828.53a8.3,8.3,0,0,1-1.25.41,2.07,2.07,0,0,1-2.69-2.22c0-3.1,0-6.2,0-9.3.05-3.56,0-7.08-2.74-10,1.61-.29,3-.49,4.45-.81,9.3-2.14,14.12-8,14.74-17.73.32-5-.57-9.51-3.86-13.41a1.64,1.64,0,0,1-.14-1.3,16.31,16.31,0,0,0-.4-9.53,1.22,1.22,0,0,0-1.45-1,14.7,14.7,0,0,0-7.43,2.59,7.83,7.83,0,0,1-6.63,1.16,37.14,37.14,0,0,0-16.71.39,3.09,3.09,0,0,1-2.05-.38,26.73,26.73,0,0,0-8.22-3.61c-2.32-.45-2.52-.33-3.14,1.91a15.8,15.8,0,0,0-.06,8.52,1.71,1.71,0,0,1-.28,1.38c-6.16,6.87-3.93,19.85.22,24.82,3.23,3.86,7.51,5.6,12.27,6.5.83.16,1.66.28,2.49.42-.72,1.86-1.36,3.61-2.08,5.33a1.75,1.75,0,0,1-1,.75c-4.67,1.81-8.68.48-11.35-3.76a8.84,8.84,0,0,0-6-4.43c-.09,0-.17-.07-.25-.05l-2.2.59c.41.57.71,1.34,1.26,1.69a12.24,12.24,0,0,1,4.81,6c1.56,3.86,4.6,5.58,8.54,5.92,1.92.16,3.86,0,6,0,0,2.39.09,5.13,0,7.86-.06,1.46-1.53,2.05-3.3,1.45a38.44,38.44,0,0,1-12.79-7.13c-13.55-11.68-18.78-26.44-14.27-43.71s16.19-27.78,33.69-31.1c24.22-4.58,47.15,13.06,49.56,37.64A42.43,42.43,0,0,1,459.93,828.53Zm-22.82-21.28a.36.36,0,0,0,0,.09l.13,0S437.26,807.43,437.11,807.25Zm-11,7.66a5.78,5.78,0,0,0,1.15.66c.15,0,.43-.3.91-.66a8.55,8.55,0,0,0-1.5-.54C426.55,814.35,426.34,814.72,426.15,814.91Zm3.45.59a1.07,1.07,0,0,0,.86.56c.28,0,.56-.38.85-.6L430,814.27C429.82,814.77,429.53,815.18,429.6,815.5Zm4.23-1a3.83,3.83,0,0,0-1,.64l.69.85,1-.92C434.29,814.84,434,814.44,433.83,814.48Zm-10.49-1.43a9,9,0,0,0,.92,1.23c.28-.46.58-.8.52-.87a4.57,4.57,0,0,0-1-.89S423.3,813,423.34,813.05Z" transform="translate(-402.85 -746.07)"/></g></svg>