<svg id="Skills" xmlns="http://www.w3.org/2000/svg" viewBox="0 0 144.23 144.23"><defs><style>.cls-1{fill:#fc414a;}.cls-2{fill:#fff;}</style></defs><title>grapich-design-icon</title><g id="icons"><g id="grapich-design"><circle class="cls-1" cx="72.11" cy="72.11" r="72.11"/><path class="cls-2" d="M490.43,1452.59l-3.68-3.68a1.16,1.16,0,0,0-.84-.35,1.19,1.19,0,0,0-.85.35l-.48.48-3.4-3.4v-6.64a1.18,1.18,0,0,0-.84-1.14l-21-6.59a1.2,1.2,0,0,0-1.5,1.5l6.58,21a1.2,1.2,0,0,0,1.15.84h6.64l3.4,3.4-.48.48a1.18,1.18,0,0,0,0,1.7l3.67,3.67a1.21,1.21,0,0,0,1.7,0l9.93-9.93A1.19,1.19,0,0,0,490.43,1452.59Zm-17.72,0h-6.26l-4.87-15.51,6.93,6.93a4,4,0,0,0-.44,1.82,3.9,3.9,0,0,0,1.16,2.79,4,4,0,1,0,1-6.3l-6.93-6.94,15.51,4.87v6.26a1.16,1.16,0,0,0,.35.84l3.75,3.75-5.59,5.59-3.75-3.75A1.16,1.16,0,0,0,472.71,1452.57Zm-.68-8.32a1.59,1.59,0,0,1,1.1.45,1.56,1.56,0,1,1-2.21,0A1.59,1.59,0,0,1,472,1444.25Zm7.62,17.42-2-2,8.25-8.24,2,2Z" transform="translate(-384.26 -1374)"/><path class="cls-2" d="M468.66,1482.23a5,5,0,0,0-4.79,3.57,39.94,39.94,0,0,1-35.38-34.93,5,5,0,0,0,0-9.52,39.94,39.94,0,0,1,35.37-34.93,5,5,0,1,0-.06-2.62H440v-1a1.2,1.2,0,0,0-1.2-1.2h-4.34a1.2,1.2,0,0,0-1.2,1.2v4.34a1.19,1.19,0,0,0,1.2,1.19h4.34a1.19,1.19,0,0,0,1.2-1.19v-1H454.1a42.33,42.33,0,0,0-26.05,26.34v-9.08h1a1.19,1.19,0,0,0,1.19-1.2v-4.34a1.19,1.19,0,0,0-1.19-1.19h-4.34a1.19,1.19,0,0,0-1.2,1.19v4.34a1.2,1.2,0,0,0,1.2,1.2h1v17.83a5,5,0,0,0,0,9.66v17.83h-1a1.2,1.2,0,0,0-1.2,1.2v4.34a1.19,1.19,0,0,0,1.2,1.19H429a1.19,1.19,0,0,0,1.19-1.19V1470a1.19,1.19,0,0,0-1.19-1.2h-1v-9.08A42.32,42.32,0,0,0,454.11,1486H440v-1a1.2,1.2,0,0,0-1.2-1.2h-4.34a1.2,1.2,0,0,0-1.2,1.2v4.34a1.2,1.2,0,0,0,1.2,1.2h4.34a1.2,1.2,0,0,0,1.2-1.2v-1H463.8a5,5,0,1,0,4.86-6.2Zm0-79.84a2.61,2.61,0,1,1-2.61,2.61A2.61,2.61,0,0,1,468.66,1402.39Zm-44.31,43.72a2.61,2.61,0,1,1,2.6,2.61A2.6,2.6,0,0,1,424.35,1446.11Zm44.31,43.72a2.61,2.61,0,1,1,2.6-2.6A2.6,2.6,0,0,1,468.66,1489.83Z" transform="translate(-384.26 -1374)"/></g></g></svg>