<svg id="Home" xmlns="http://www.w3.org/2000/svg" viewBox="0 0 84.25 84.25"><defs><style>.cls-1{fill:#fff;}</style></defs><title>linkedin-icon</title><g id="icons"><path class="cls-1" d="M161.76,745.4a42.13,42.13,0,1,0,42.12,42.13A42.13,42.13,0,0,0,161.76,745.4ZM146,816.05H134.13V778H146Zm-5.92-43.31a6.87,6.87,0,1,1,6.87-6.87A6.88,6.88,0,0,1,140.05,772.74Zm50.28,43.31H178.49V797.52c0-4.42-.08-10.1-6.15-10.1s-7.11,4.81-7.11,9.78v18.85H153.4V778h11.36v5.2h.16a12.44,12.44,0,0,1,11.2-6.15c12,0,14.21,7.89,14.21,18.15Z" transform="translate(-119.63 -745.4)"/></g></svg>