<svg id="Home" xmlns="http://www.w3.org/2000/svg" viewBox="0 0 355.02 84.69"><defs><style>.cls-1,.cls-3{fill:#fc414a;}.cls-2,.cls-4{fill:#fff;}.cls-3,.cls-4{fill-rule:evenodd;}</style></defs><title>logo</title><g id="Logo"><path class="cls-1" d="M248.65,102.14V79.08l-9.92,17.69h-2.14l-10-17.69v23.06h-3.78V72.32h4l10.79,19.37,10.84-19.37h4v29.82Z" transform="translate(-120.3 -45.53)"/><path class="cls-1" d="M268.18,102.56a10.74,10.74,0,0,1-8-3.4,11.15,11.15,0,0,1-2.24-3.61,11.93,11.93,0,0,1-.8-4.33,11.67,11.67,0,0,1,.82-4.37,11.33,11.33,0,0,1,2.27-3.61,11.11,11.11,0,0,1,12.45-2.47,10.81,10.81,0,0,1,3.51,2.47,11.48,11.48,0,0,1,2.26,3.61,11.67,11.67,0,0,1,.82,4.37,11.92,11.92,0,0,1-.79,4.33,10.93,10.93,0,0,1-5.78,6.09A10.89,10.89,0,0,1,268.18,102.56Zm-7.27-11.29a8.77,8.77,0,0,0,.57,3.19A8,8,0,0,0,263,97a7.35,7.35,0,0,0,2.31,1.72,6.69,6.69,0,0,0,5.67,0A7.45,7.45,0,0,0,273.34,97a8.18,8.18,0,0,0,1.58-2.61,9.1,9.1,0,0,0,.56-3.21,9,9,0,0,0-.56-3.17,8.24,8.24,0,0,0-1.58-2.6A7.33,7.33,0,0,0,271,83.66a6.51,6.51,0,0,0-2.83-.63,6.4,6.4,0,0,0-2.84.65A7.66,7.66,0,0,0,263,85.45a8.17,8.17,0,0,0-1.55,2.6A9,9,0,0,0,260.91,91.27Z" transform="translate(-120.3 -45.53)"/><path class="cls-1" d="M291.44,102.56a16.82,16.82,0,0,1-5.2-.82,12.63,12.63,0,0,1-4.41-2.37l1.59-2.48a15.61,15.61,0,0,0,3.87,2.21,11.3,11.3,0,0,0,4.07.73,6.72,6.72,0,0,0,3.8-.94,3,3,0,0,0,1.41-2.67,2.39,2.39,0,0,0-.38-1.36,3.17,3.17,0,0,0-1.13-1,9.69,9.69,0,0,0-1.94-.76c-.78-.22-1.69-.46-2.73-.71-1.31-.34-2.45-.66-3.4-1a8.88,8.88,0,0,1-2.35-1.09,3.76,3.76,0,0,1-1.34-1.51,5.08,5.08,0,0,1-.42-2.18,6.18,6.18,0,0,1,2.43-5.07,8.3,8.3,0,0,1,2.67-1.3,12,12,0,0,1,3.3-.44,13.19,13.19,0,0,1,4.62.8,11.37,11.37,0,0,1,3.61,2.1L297.83,85a9.4,9.4,0,0,0-3.11-1.82,10.4,10.4,0,0,0-3.53-.61,6.48,6.48,0,0,0-3.42.86,3,3,0,0,0-1.41,2.75,2.64,2.64,0,0,0,.27,1.26,2.41,2.41,0,0,0,.91.88,7,7,0,0,0,1.61.68c.66.19,1.45.4,2.38.62,1.45.34,2.72.68,3.8,1A11.26,11.26,0,0,1,298,91.85a4.46,4.46,0,0,1,2.12,4,5.85,5.85,0,0,1-2.35,4.87A10.21,10.21,0,0,1,291.44,102.56Z" transform="translate(-120.3 -45.53)"/><path class="cls-1" d="M314.08,102.56a10.74,10.74,0,0,1-8-3.4,11,11,0,0,1-2.25-3.61,12.23,12.23,0,0,1,0-8.7,11.69,11.69,0,0,1,2.27-3.61,10.83,10.83,0,0,1,3.49-2.47,10.65,10.65,0,0,1,4.47-.93,10.77,10.77,0,0,1,4.49.93,10.6,10.6,0,0,1,3.51,2.47,11.51,11.51,0,0,1,2.27,3.61,11.67,11.67,0,0,1,.82,4.37,11.93,11.93,0,0,1-.8,4.33,10.89,10.89,0,0,1-2.27,3.61,11.12,11.12,0,0,1-3.5,2.48A10.93,10.93,0,0,1,314.08,102.56Zm-7.27-11.29a8.77,8.77,0,0,0,.57,3.19A8.18,8.18,0,0,0,308.94,97a7.13,7.13,0,0,0,2.31,1.72,6.48,6.48,0,0,0,2.83.63,6.55,6.55,0,0,0,2.84-.63A7.57,7.57,0,0,0,319.25,97a8.15,8.15,0,0,0,1.57-2.61,8.88,8.88,0,0,0,.57-3.21,8.78,8.78,0,0,0-.57-3.17,8.21,8.21,0,0,0-1.57-2.6,7.44,7.44,0,0,0-2.33-1.75,6.55,6.55,0,0,0-2.84-.63,6.35,6.35,0,0,0-2.83.65,7.42,7.42,0,0,0-2.31,1.77,8.38,8.38,0,0,0-1.56,2.6A9,9,0,0,0,306.81,91.27Z" transform="translate(-120.3 -45.53)"/><path class="cls-1" d="M348.69,102.14H345V89.88a9.43,9.43,0,0,0-1.07-5.13,3.65,3.65,0,0,0-3.25-1.59,6.27,6.27,0,0,0-2.27.44,8.55,8.55,0,0,0-2.14,1.2,8.17,8.17,0,0,0-1.77,1.8,7.76,7.76,0,0,0-1.13,2.31v13.23h-3.7V80.22H333v4.7a9.6,9.6,0,0,1,3.76-3.69,10.66,10.66,0,0,1,5.36-1.39,6.5,6.5,0,0,1,3.15.69,5.35,5.35,0,0,1,2,1.94,8.43,8.43,0,0,1,1.07,2.92,19.76,19.76,0,0,1,.32,3.65Z" transform="translate(-120.3 -45.53)"/><path class="cls-1" d="M355,108.11c.36,0,.73.1,1.09.12s.65,0,.84,0a1.74,1.74,0,0,0,.91-.23,2.41,2.41,0,0,0,.79-.9,15.75,15.75,0,0,0,.91-1.87c.33-.8.75-1.84,1.26-3.13l-9.29-21.92h3.83l7.47,18.61,6.81-18.61h3.52L362.51,107.9a6.45,6.45,0,0,1-2,2.58,5.79,5.79,0,0,1-3.76,1.11,6.74,6.74,0,0,1-.77,0,8.59,8.59,0,0,1-1-.17Z" transform="translate(-120.3 -45.53)"/><path class="cls-2" d="M397,72.32h1.26l12.81,29.82h-1.55l-4.41-10.29H390.19l-4.42,10.29h-1.59Zm7.64,18.27-7-16.42L390.6,90.59Zm-7.35-23.14-1-.54,2.6-3.32h1.89Z" transform="translate(-120.3 -45.53)"/><path class="cls-2" d="M431.18,102.14l-8.91-12.09-5.58,5.08v7h-1.43V71.48h1.43v22l14.15-13.06h1.72l-9.28,8.73,9.53,13Z" transform="translate(-120.3 -45.53)"/><path class="cls-2" d="M444.66,102.56a9.57,9.57,0,0,1-4.14-.9,10.74,10.74,0,0,1-3.34-2.44A11,11,0,0,1,435,95.63a12.06,12.06,0,0,1,0-8.69,11.5,11.5,0,0,1,2.24-3.61,10.76,10.76,0,0,1,3.34-2.46,9.81,9.81,0,0,1,8.21,0,10.5,10.5,0,0,1,3.36,2.46,11.87,11.87,0,0,1,2.25,12.3,11.68,11.68,0,0,1-2.22,3.59,10.51,10.51,0,0,1-3.34,2.44A9.75,9.75,0,0,1,444.66,102.56Zm-9.07-11.21a10.41,10.41,0,0,0,2.64,7,8.9,8.9,0,0,0,2.88,2.12,8.28,8.28,0,0,0,7.06,0,9.38,9.38,0,0,0,2.89-2.14,10,10,0,0,0,2-3.17,10.77,10.77,0,0,0,0-7.69,10,10,0,0,0-2-3.17,9.54,9.54,0,0,0-2.89-2.14,8.05,8.05,0,0,0-3.51-.8,7.9,7.9,0,0,0-3.49.8,9.48,9.48,0,0,0-2.88,2.16,10.77,10.77,0,0,0-2,3.19A10.35,10.35,0,0,0,435.59,91.35Z" transform="translate(-120.3 -45.53)"/><path class="cls-2" d="M467.09,102.56a13,13,0,0,1-4.71-.84,10.59,10.59,0,0,1-3.86-2.6l.8-1a13,13,0,0,0,3.61,2.4,10.28,10.28,0,0,0,4.11.8,8.56,8.56,0,0,0,5-1.31,4.17,4.17,0,0,0,1.89-3.65,3.28,3.28,0,0,0-.48-1.83A4.05,4.05,0,0,0,472,93.3a10.58,10.58,0,0,0-2.29-.92c-.91-.27-1.95-.54-3.13-.82s-2.25-.55-3.13-.82a9.25,9.25,0,0,1-2.2-.95,3.37,3.37,0,0,1-1.3-1.38,4.77,4.77,0,0,1-.42-2.14,5.93,5.93,0,0,1,.63-2.82,5.69,5.69,0,0,1,1.7-2,7.39,7.39,0,0,1,2.47-1.15,11.23,11.23,0,0,1,3-.38,10.82,10.82,0,0,1,4.56.88,6.47,6.47,0,0,1,2.79,2.23l-1,.71A5.75,5.75,0,0,0,471,81.86a10.62,10.62,0,0,0-3.8-.67,10.4,10.4,0,0,0-2.43.27,5.59,5.59,0,0,0-2,.88,4.53,4.53,0,0,0-1.36,1.53,4.49,4.49,0,0,0-.51,2.19,3.67,3.67,0,0,0,.34,1.68,2.65,2.65,0,0,0,1.07,1.11,7.7,7.7,0,0,0,1.85.76c.74.21,1.64.44,2.71.69,1.34.31,2.53.62,3.57.92a13.13,13.13,0,0,1,2.64,1.09,4.55,4.55,0,0,1,1.66,1.56,4.42,4.42,0,0,1,.57,2.35,5.75,5.75,0,0,1-.59,2.63,6,6,0,0,1-1.66,2,7.44,7.44,0,0,1-2.6,1.28A12,12,0,0,1,467.09,102.56Z" transform="translate(-120.3 -45.53)"/><path class="cls-3" d="M189.92,120.26l-4.64-5.5a35.12,35.12,0,0,1-8.68,5.36l2.85,6.61A42,42,0,0,0,189.92,120.26Z" transform="translate(-120.3 -45.53)"/><path class="cls-3" d="M202.45,102.31l-6.77-2.46a40.79,40.79,0,0,1-2.1,4.68,40.37,40.37,0,0,1-2.74,4.32l5.78,4.29a42.27,42.27,0,0,0,5.83-10.83Z" transform="translate(-120.3 -45.53)"/><path class="cls-3" d="M204.34,80.57l-7.09,1.25a34.89,34.89,0,0,1,.29,10.2l7.15.85A41.59,41.59,0,0,0,204.34,80.57Z" transform="translate(-120.3 -45.53)"/><path class="cls-3" d="M130.25,115.15l5.51-4.64a35.12,35.12,0,0,1-5.36-8.68l-6.61,2.85A42.12,42.12,0,0,0,130.25,115.15Z" transform="translate(-120.3 -45.53)"/><path class="cls-3" d="M148.21,127.68l2.46-6.77a34.91,34.91,0,0,1-9-4.84l-4.29,5.78a46.18,46.18,0,0,0,5.2,3.31A48.09,48.09,0,0,0,148.21,127.68Z" transform="translate(-120.3 -45.53)"/><path class="cls-3" d="M170,129.57l-1.26-7.09a34.81,34.81,0,0,1-10.19.29l-.85,7.15A41.6,41.6,0,0,0,170,129.57Z" transform="translate(-120.3 -45.53)"/><path class="cls-3" d="M135.37,55.49,140,61a35.12,35.12,0,0,1,8.68-5.36L145.83,49A42,42,0,0,0,135.37,55.49Z" transform="translate(-120.3 -45.53)"/><path class="cls-3" d="M122.84,73.44l6.77,2.46a42.53,42.53,0,0,1,2.09-4.68,38.94,38.94,0,0,1,2.75-4.32l-5.78-4.29a42.27,42.27,0,0,0-5.83,10.83Z" transform="translate(-120.3 -45.53)"/><path class="cls-3" d="M120.94,95.18l7.1-1.25a34.89,34.89,0,0,1-.29-10.2l-7.15-.85A41.92,41.92,0,0,0,120.94,95.18Z" transform="translate(-120.3 -45.53)"/><path class="cls-3" d="M195,60.6l-5.51,4.64a34.53,34.53,0,0,1,5.36,8.68l6.62-2.85A42.16,42.16,0,0,0,195,60.6Z" transform="translate(-120.3 -45.53)"/><path class="cls-3" d="M177.08,48.07l-2.46,6.77a42.53,42.53,0,0,1,4.68,2.09,43.21,43.21,0,0,1,4.32,2.75l4.29-5.78a47.1,47.1,0,0,0-5.2-3.31A48.09,48.09,0,0,0,177.08,48.07Z" transform="translate(-120.3 -45.53)"/><path class="cls-3" d="M155.34,46.18l1.25,7.09a34.88,34.88,0,0,1,10.2-.29l.85-7.15A41.58,41.58,0,0,0,155.34,46.18Z" transform="translate(-120.3 -45.53)"/><path class="cls-4" d="M162.64,66.61a21.27,21.27,0,1,0,21.27,21.27A21.27,21.27,0,0,0,162.64,66.61Zm0,37.05a15.79,15.79,0,1,1,15.78-15.78A15.79,15.79,0,0,1,162.64,103.66Z" transform="translate(-120.3 -45.53)"/><circle class="cls-1" cx="42.34" cy="42.34" r="4.8"/></g></svg>