<svg id="Skills" xmlns="http://www.w3.org/2000/svg" viewBox="0 0 144.23 144.23"><defs><style>.cls-1{fill:#fc414a;}.cls-2{fill:#fff;}</style></defs><title>web-development-icon</title><g id="icons"><g id="web-developer"><circle class="cls-1" cx="72.11" cy="72.11" r="72.11"/><path class="cls-2" d="M960.74,1464a2,2,0,1,0,2,2A2,2,0,0,0,960.74,1464Z" transform="translate(-888.63 -1374)"/><path class="cls-2" d="M1004.5,1409.4H917a1.87,1.87,0,0,0-1.87,1.86v61a1.87,1.87,0,0,0,1.87,1.86h32.53l-3.26,7.91h-6.12a1.86,1.86,0,0,0-1.86,1.86V1491a1.87,1.87,0,0,0,1.86,1.87h41.22a1.87,1.87,0,0,0,1.86-1.87v-7.09a1.86,1.86,0,0,0-1.86-1.86h-6.13L972,1474.1h32.53a1.86,1.86,0,0,0,1.86-1.86v-61A1.86,1.86,0,0,0,1004.5,1409.4Zm-1.86,3.72V1458h-83.8v-44.86Zm-23.16,76H942v-3.37h37.49Zm-8.29-7.09H950.28l3.26-7.91h14.4Zm-52.35-11.63v-8.67h83.8v8.67Z" transform="translate(-888.63 -1374)"/><path class="cls-2" d="M975.3,1435.49h0a1.87,1.87,0,0,0-1.86-1.87h-2a9.92,9.92,0,0,0-.5-1.87l1.72-1a1.86,1.86,0,0,0-1.86-3.23l-1.72,1a11.24,11.24,0,0,0-1.38-1.38l1-1.72a1.86,1.86,0,0,0-3.23-1.86l-1,1.71a11.7,11.7,0,0,0-1.87-.5v-2a1.87,1.87,0,0,0-1.87-1.86h0a1.86,1.86,0,0,0-1.86,1.86v2a11.7,11.7,0,0,0-1.87.5l-1-1.71a1.86,1.86,0,1,0-3.22,1.86l1,1.72a12.66,12.66,0,0,0-1.37,1.37l-1.72-1a1.86,1.86,0,0,0-1.86,3.23l1.71,1a11.7,11.7,0,0,0-.5,1.87h-2a1.87,1.87,0,0,0-1.87,1.87h0a1.87,1.87,0,0,0,1.87,1.86h2a11.7,11.7,0,0,0,.5,1.87l-1.71,1a1.86,1.86,0,1,0,1.86,3.22l1.72-1a12.66,12.66,0,0,0,1.37,1.37l-1,1.72a1.86,1.86,0,1,0,3.22,1.86l1-1.71a10.73,10.73,0,0,0,1.87.5v2a1.87,1.87,0,0,0,1.86,1.87h0a1.87,1.87,0,0,0,1.87-1.87v-2a10.73,10.73,0,0,0,1.87-.5l1,1.71a1.86,1.86,0,1,0,3.23-1.86l-1-1.72a11.91,11.91,0,0,0,1.38-1.37l1.72,1a1.86,1.86,0,1,0,1.86-3.22l-1.72-1a9.92,9.92,0,0,0,.5-1.87h2a1.86,1.86,0,0,0,1.86-1.86Zm-14.55,7.14h0a7.14,7.14,0,1,1,0-14.28h0a7.14,7.14,0,0,1,0,14.28Z" transform="translate(-888.63 -1374)"/></g></g></svg>