<svg id="Home" xmlns="http://www.w3.org/2000/svg" xmlns:xlink="http://www.w3.org/1999/xlink" viewBox="0 0 892.48 548.22"><defs><style>.cls-1{opacity:0.26;fill:url(#Névtelen_színátmenet_10);}.cls-2{fill:#fc414a;}.cls-3{fill:#ce3c4a;}.cls-4{fill:#2e5b9a;}.cls-5{fill:#f09959;}.cls-6{fill:#e38540;}.cls-7{fill:#96cfe0;}.cls-8{fill:#75a1de;}.cls-9{fill:#a86b48;}.cls-10{fill:#3e6bab;}.cls-11{fill:#f0ceb4;}.cls-12{fill:#a8ceff;}.cls-13{fill:#f7a96f;}.cls-14{fill:#b7e1ff;}.cls-15{fill:#fff;}.cls-16{fill:#9ec8ff;}</style><linearGradient id="Névtelen_színátmenet_10" x1="917.29" y1="560.3" x2="1809.77" y2="560.3" gradientUnits="userSpaceOnUse"><stop offset="0" stop-color="#fff" stop-opacity="0.4"/><stop offset="0.48" stop-color="#fff" stop-opacity="0.72"/><stop offset="0.83" stop-color="#fff" stop-opacity="0.92"/><stop offset="1" stop-color="#fff"/></linearGradient></defs><title>character</title><g id="Character"><path class="cls-1" d="M961.52,776.34s-74.76-92.7-29.9-180.93,130.09-67.28,249.71-157c145.22-108.92,247.2-114.9,376.81-67.29C1631.41,398,1643.37,508.69,1760,577.47c105.14,62,19.43,167.47-35.89,183.92s-92.71,16.45-92.71,16.45Z" transform="translate(-917.29 -230.38)"/><path class="cls-2" d="M1406.64,577c-18.66,37.88-42.05,141.39-48.43,147.06s-43.25,27.65-49.63,38.29-3.55,7.09-.71,7.79,163.06,1.42,163.06,1.42S1452.5,661.7,1450.37,661,1406.64,577,1406.64,577Z" transform="translate(-917.29 -230.38)"/><path class="cls-3" d="M1380.11,771.08c29.43.2,60.48.37,77.58.45l-23.41-140c-12.48-24.2-27.64-54.53-27.64-54.53-2.35,4.77-4.78,10.59-7.24,17.13-2.42,105.13,12.72,134.59,1.34,153.33C1391.87,762.1,1383.77,768.64,1380.11,771.08Z" transform="translate(-917.29 -230.38)"/><path class="cls-4" d="M1712.8,778.61H943.4a5.94,5.94,0,1,1,0-11.87h769.4a5.94,5.94,0,0,1,0,11.87Z" transform="translate(-917.29 -230.38)"/><path class="cls-2" d="M1504.91,531.31c26.61,24.56,85.85,47.86,85.85,47.86s9,83.16,2.86,130.24-2.73,56.64-2.73,56.64H1468.74s-16.39-22.75-46.4-93.49c-19.11-45-15.7-95.53-15.7-95.53L1481,543.59Z" transform="translate(-917.29 -230.38)"/><path class="cls-3" d="M1468.74,766.05h122.15s-3.41-9.56,2.73-56.64c5.05-38.77-.16-102-2.15-123.12l-11.11-4.76c-27.89,8-44,49.63-48.69,90.28-3.16,27.2-48.22,54-77.7,68.72C1463.66,759,1468.74,766.05,1468.74,766.05Z" transform="translate(-917.29 -230.38)"/><path class="cls-4" d="M1438.8,446c-14.73,32.79,2.94,63.17,2.41,61.89s22.28-55.37,22.28-55.37Z" transform="translate(-917.29 -230.38)"/><path class="cls-5" d="M1494.59,470.21l18.67,68.25a6.17,6.17,0,0,1-1.18,5.53c-4.38,5.39-10.61,16.49-23.19,20a31.35,31.35,0,0,1-7.9.89,5.32,5.32,0,0,1-5.26-4.32l-12.51-64.73Z" transform="translate(-917.29 -230.38)"/><path class="cls-6" d="M1491,475.91l-6.83,2.8-21,17.17,11.26,57.39C1493.58,541.36,1496.37,533.32,1491,475.91Z" transform="translate(-917.29 -230.38)"/><path class="cls-5" d="M1493.91,500.4c-4.14,22.45-20.94,37.64-37.53,33.91s-24.51-18.25-22.56-47.39c1.53-22.86,12.8-47.7,29.39-44S1498,477.94,1493.91,500.4Z" transform="translate(-917.29 -230.38)"/><path class="cls-2" d="M1590.76,579.17c24.71,5.58,29.3,55.78,37.34,108.72.92,6.09,5.67,57.66,5.67,57.66a15.79,15.79,0,0,1-9,14.18c-8.08,4-11.34,7.09-58.14,7.56-44.94.46-102.89-1.41-102.89-1.41s-.51-16.73,4.1-24.9c6.93-12.29,78-29.93,84.61-30.88,1-13.23-6.52-61.12,3.78-93.59,7.09-22.33,14.71-34,24.26-37.09A19.16,19.16,0,0,1,1590.76,579.17Z" transform="translate(-917.29 -230.38)"/><path class="cls-3" d="M1489.18,766.9c22.15.33,52.56.65,77.47.39,46.8-.47,50.06-3.52,58.14-7.56,9.45-4.72,9.93-12.76,9.93-12.76s-4.78-54.88-5.68-61c-5.2-35.45-10.81-76-23.89-95.59,12.29,36,14.27,66.42,14.49,79.4.11,6.57-.49,15.58-2.41,21.87-2.13,7-7.57,11.34-16.07,9-17-4.73-38.29,5.2-38.29,5.2s16.07-5.68,31.2-.48,46.32,39.71,12.29,52.47C1595.94,761.75,1533.56,764.93,1489.18,766.9Z" transform="translate(-917.29 -230.38)"/><path class="cls-7" d="M1471.64,742.56s6.3-10.72,19.23-10.72,12,21.12,10.08,28-9.46,7.25-9.46,7.25l-27.73-1.26Z" transform="translate(-917.29 -230.38)"/><rect class="cls-8" x="346.64" y="530.6" width="184.4" height="10.96" rx="4.79"/><path class="cls-5" d="M1468.18,743.82c-27.1-9.77-34.21-6.09-40.34-7.88-15.12-4.41-18.91-.63-28.67,26.16-2,5.33,3.78,5.67,9.45,5.67s12.6-11,14.81-12.29,8.19-1.89,8.19-1.89-1.89,0-4.72,5.67-6.31,7.88-1.89,7.88,5-7.25,13.23-5.67,5,5.67,25.52,5.35,36,0,35.61-12.29c-.31-11.66,1-17.49-10.08-19.53C1480.78,733.42,1468.18,743.82,1468.18,743.82Z" transform="translate(-917.29 -230.38)"/><path class="cls-9" d="M1468.53,743.82c18.12-2.05,12.8,20.52,10.91,22.41s10.09.67,10.09.67a21.89,21.89,0,0,0,.9-19.46c-4.72-10.4-14.18-10.87-14.18-10.87l-8,4.41Z" transform="translate(-917.29 -230.38)"/><path class="cls-4" d="M1487.45,741.85c-.23,2.8-5,4.69-10.62,4.22s-10-3.12-9.77-5.92,5-4.68,10.62-4.21S1487.68,739.06,1487.45,741.85Z" transform="translate(-917.29 -230.38)"/><path class="cls-10" d="M1486,740.46c-.21,2.5-4.46,4.19-9.49,3.77s-8.93-2.79-8.73-5.29,4.46-4.18,9.49-3.76S1486.22,738,1486,740.46Z" transform="translate(-917.29 -230.38)"/><path class="cls-11" d="M1482.87,739.3c-.15,1.8-3.21,3-6.83,2.71s-6.44-2-6.29-3.8,3.21-3,6.83-2.71S1483,737.51,1482.87,739.3Z" transform="translate(-917.29 -230.38)"/><path class="cls-8" d="M1262.32,737.32h-176.1a19.28,19.28,0,0,1-18.88-15.94l-23-126.78a19.38,19.38,0,0,1,18.88-23h176.1a19.28,19.28,0,0,1,18.88,16l23,126.77A19.38,19.38,0,0,1,1262.32,737.32Z" transform="translate(-917.29 -230.38)"/><path class="cls-12" d="M1270.55,714.82l-23.44-124.16a19.45,19.45,0,0,0-19.27-15.61h-179a19.73,19.73,0,0,0-4.49,16.55L1068.16,721a19.87,19.87,0,0,0,19.54,16.28h163.58C1263.52,737.32,1272.76,726.53,1270.55,714.82Z" transform="translate(-917.29 -230.38)"/><path class="cls-8" d="M1228.09,754.3h-33.43c-6,0-10.8-5.31-10.8-11.86V681.32c0-10.43-7.69-18.88-17.18-18.88h-17.46c-9.49,0-17.18,8.45-17.18,18.88v68.45c0,11.7,8.67,21.17,19.32,21.1l91.24-.63C1242.6,761.44,1236.1,754.3,1228.09,754.3Z" transform="translate(-917.29 -230.38)"/><path class="cls-12" d="M1133.36,682.69v67.4a20.79,20.79,0,0,0,19.27,20.72l89-.56c0-1.46-7-4.12-15.7-4.12h-36.16a11.67,11.67,0,0,1-11.68-11.67V682.69a18.58,18.58,0,0,0-18.58-18.59H1152A18.59,18.59,0,0,0,1133.36,682.69Z" transform="translate(-917.29 -230.38)"/><path class="cls-5" d="M1319.74,746.53c13.46-7.47,29.91-5,35.89,2.49s7,12.46-6.48,12.46-40.37,1-44.86.5S1319.74,746.53,1319.74,746.53Z" transform="translate(-917.29 -230.38)"/><path class="cls-5" d="M1339.68,742.05c14.45-3.49,24.33,4.92,36.38,13,10.46,7,12.57,13.76,1,8-17-8.47-26.92-9.47-26.92-9.47Z" transform="translate(-917.29 -230.38)"/><path class="cls-5" d="M1326.51,746.49c-7.3,0-13.67-2.33-18.82-1.9s-21.47,17.17-18.89,18.46a5.68,5.68,0,0,0,.6.26,8.8,8.8,0,0,0,10.43-3.66c2.31-3.71,6.06-8,10.44-6.48a46.28,46.28,0,0,0,15,2.33Z" transform="translate(-917.29 -230.38)"/><path class="cls-13" d="M1322.23,764.47c-7.47-3,4.49-27.91,8.48-27.91s18.94,12,18.94,12-3.52,2-15.45-2c-3-1-5.49,16-9,17.94S1322.23,764.47,1322.23,764.47Z" transform="translate(-917.29 -230.38)"/><path class="cls-4" d="M1433.81,500.05c-.7,27.44,8.65,32.08,15.19,35.8s34.71-2.43,38.85-9.21c10.58-17.37,1.67-33.56,4-33.31s4.53,7,10.7,15.78c.57.81,4.58,6.23,4.79,4.43,2.87-24.57,15.66-32.2,12.61-57.06-2.24-18.32-13.87-16.86-13.87-16.86s-7.5-15.33-30.86-13.59c-15.65,1.16-29.6,7.26-45.73,11.41s19.08,40.72,40,27.36,10.59,16.06,13.89,18.34,1.59.31,3.1,15.36-17.6,24.89-23.08,26.18c-17.53,4.12-20.46,1.23-24.29-5.37C1435.83,513.59,1433.81,500.05,1433.81,500.05Z" transform="translate(-917.29 -230.38)"/><path class="cls-5" d="M1506.34,491.55c-2,6.92-6.93,11.38-11,10s-4.17-7-3.69-15.07c.43-7.25,6.92-11.38,11-10S1508.34,484.63,1506.34,491.55Z" transform="translate(-917.29 -230.38)"/><rect class="cls-14" x="6.24" y="96.53" width="155.49" height="70.27" rx="2.95"/><rect class="cls-15" x="10.49" y="114.99" width="146.98" height="48.51" rx="2.38"/><rect class="cls-15" x="12.65" y="101.7" width="6.09" height="5.48" rx="1.32"/><rect class="cls-15" x="23.73" y="101.7" width="6.09" height="5.48" rx="1.32"/><rect class="cls-15" x="34.8" y="101.7" width="6.09" height="5.48" rx="1.32"/><path class="cls-14" d="M1068.78,356H991a2.33,2.33,0,0,1,0-4.65h77.75a2.33,2.33,0,1,1,0,4.65Z" transform="translate(-917.29 -230.38)"/><path class="cls-14" d="M1010.3,391.89H932.56a2.33,2.33,0,1,1,0-4.65h77.74a2.33,2.33,0,1,1,0,4.65Z" transform="translate(-917.29 -230.38)"/><rect class="cls-14" x="98.5" y="156.86" width="9.63" height="4.65" rx="0.8"/><rect class="cls-14" x="110.63" y="156.86" width="9.64" height="4.65" rx="0.8"/><path class="cls-14" d="M1069.53,366.14H940.78a1.58,1.58,0,1,1,0-3.15h128.75a1.58,1.58,0,1,1,0,3.15Z" transform="translate(-917.29 -230.38)"/><path class="cls-14" d="M1069.53,373H940.78a1.58,1.58,0,1,1,0-3.15h128.75a1.58,1.58,0,1,1,0,3.15Z" transform="translate(-917.29 -230.38)"/><rect class="cls-16" x="41.38" y="145.87" width="155.49" height="70.27" rx="2.95"/><rect class="cls-15" x="45.63" y="164.33" width="146.98" height="48.51" rx="2.38"/><rect class="cls-15" x="47.79" y="151.04" width="6.09" height="5.48" rx="1.32"/><rect class="cls-15" x="58.86" y="151.04" width="6.09" height="5.48" rx="1.32"/><rect class="cls-15" x="69.94" y="151.04" width="6.09" height="5.48" rx="1.32"/><path class="cls-16" d="M1103.92,405.34h-77.75a2.33,2.33,0,1,1,0-4.65h77.75a2.33,2.33,0,0,1,0,4.65Z" transform="translate(-917.29 -230.38)"/><path class="cls-16" d="M1045.44,441.23H967.69a2.33,2.33,0,0,1,0-4.65h77.75a2.33,2.33,0,1,1,0,4.65Z" transform="translate(-917.29 -230.38)"/><rect class="cls-16" x="133.64" y="206.19" width="9.64" height="4.65" rx="0.8"/><rect class="cls-16" x="145.76" y="206.19" width="9.63" height="4.65" rx="0.8"/><path class="cls-16" d="M1104.66,415.48H975.92a1.58,1.58,0,1,1,0-3.16h128.74a1.58,1.58,0,1,1,0,3.16Z" transform="translate(-917.29 -230.38)"/><path class="cls-16" d="M1104.66,422.29H975.92a1.58,1.58,0,1,1,0-3.16h128.74a1.58,1.58,0,1,1,0,3.16Z" transform="translate(-917.29 -230.38)"/><path class="cls-2" d="M1216.84,505.13a20.19,20.19,0,1,1-20.18-20.19A20.19,20.19,0,0,1,1216.84,505.13Z" transform="translate(-917.29 -230.38)"/><path class="cls-15" d="M1194.65,512.58h-.05a1.51,1.51,0,0,1-1.1-.52l-5.48-6.23a1.53,1.53,0,1,1,2.3-2l4.42,5,10.55-10.33a1.53,1.53,0,0,1,2.15,2.19l-11.71,11.47A1.55,1.55,0,0,1,1194.65,512.58Z" transform="translate(-917.29 -230.38)"/><path class="cls-2" d="M1319.58,326.91a20.19,20.19,0,1,1-20.18-20.18A20.19,20.19,0,0,1,1319.58,326.91Z" transform="translate(-917.29 -230.38)"/><path class="cls-15" d="M1297.39,334.37h-.06a1.49,1.49,0,0,1-1.09-.52l-5.48-6.23a1.53,1.53,0,1,1,2.3-2l4.42,5L1308,320.28a1.53,1.53,0,0,1,2.15,2.19l-11.71,11.46A1.52,1.52,0,0,1,1297.39,334.37Z" transform="translate(-917.29 -230.38)"/><rect class="cls-16" x="294.56" width="140.29" height="57.81" rx="5.98"/><path class="cls-16" d="M1228.79,279.47v31.9l36.76-36.75S1229.54,279.47,1228.79,279.47Z" transform="translate(-917.29 -230.38)"/><rect class="cls-15" x="301.82" y="5.73" width="125.78" height="46.35" rx="5.07"/><path class="cls-16" d="M1287.6,247.58h-56.82a2.5,2.5,0,0,1,0-5h56.82a2.5,2.5,0,0,1,0,5Z" transform="translate(-917.29 -230.38)"/><rect class="cls-16" x="311.01" y="23.92" width="108.15" height="2.8" rx="1.39"/><rect class="cls-16" x="311.01" y="29.35" width="108.15" height="2.8" rx="1.39"/><rect class="cls-16" x="391.22" y="44.6" width="6.09" height="5.48" rx="1.32"/><rect class="cls-16" x="402.29" y="44.6" width="6.09" height="5.48" rx="1.32"/><rect class="cls-16" x="413.37" y="44.6" width="6.09" height="5.48" rx="1.32"/></g></svg>