<svg class="svgg" xmlns="http://www.w3.org/2000/svg" viewBox="0 0 85.03 82.93"><defs><style type="text/css">.cls-1{fill:#fff;}</style></defs><title>github-logo</title><g id="Links"><path class="cls-1" d="M1136.18,1005.38a8.41,8.41,0,0,1-1.26.41,2.07,2.07,0,0,1-2.69-2.22c0-3.1,0-6.2,0-9.29,0-3.57,0-7.09-2.74-10,1.61-.28,3-.49,4.45-.81,9.3-2.13,14.13-8,14.75-17.73.31-5-.57-9.5-3.87-13.41a1.61,1.61,0,0,1-.13-1.29,16.42,16.42,0,0,0-.4-9.54,1.23,1.23,0,0,0-1.45-1,14.86,14.86,0,0,0-7.44,2.59,7.75,7.75,0,0,1-6.63,1.16,37,37,0,0,0-16.71.4,3.17,3.17,0,0,1-2-.39,26.42,26.42,0,0,0-8.21-3.6c-2.33-.46-2.53-.34-3.14,1.9a15.71,15.71,0,0,0-.07,8.52,1.67,1.67,0,0,1-.28,1.38c-6.15,6.87-3.92,19.85.22,24.82,3.23,3.86,7.52,5.6,12.27,6.51.83.15,1.66.27,2.49.41-.71,1.86-1.35,3.61-2.08,5.33a1.75,1.75,0,0,1-1,.75c-4.66,1.81-8.67.48-11.34-3.76a8.84,8.84,0,0,0-6-4.43.85.85,0,0,0-.26-.05l-2.19.59c.41.57.7,1.34,1.25,1.69a12.24,12.24,0,0,1,4.81,6c1.57,3.86,4.6,5.59,8.54,5.92,1.93.16,3.87,0,6,0,0,2.39.09,5.13,0,7.86-.06,1.47-1.54,2-3.31,1.45a38.39,38.39,0,0,1-12.78-7.13c-13.56-11.68-18.78-26.44-14.28-43.71s16.2-27.78,33.7-31.1c24.21-4.58,47.15,13.06,49.55,37.64A42.42,42.42,0,0,1,1136.18,1005.38Zm-22.83-21.28a.36.36,0,0,1,0,.09l.13,0S1113.51,984.28,1113.35,984.1Zm-10.95,7.66a5.45,5.45,0,0,0,1.14.66c.15,0,.43-.29.92-.66a9.16,9.16,0,0,0-1.5-.54C1102.79,991.2,1102.58,991.57,1102.4,991.76Zm3.45.59a1.07,1.07,0,0,0,.85.57c.29,0,.57-.39.85-.61l-1.32-1.19C1106.06,991.62,1105.77,992,1105.85,992.35Zm4.23-1a3.52,3.52,0,0,0-1,.64l.68.85,1-.92C1110.54,991.69,1110.26,991.29,1110.08,991.33Zm-10.49-1.42a9.43,9.43,0,0,0,.91,1.22c.28-.45.58-.8.53-.87a4.52,4.52,0,0,0-1-.88S1099.54,989.82,1099.59,989.91Z" transform="translate(-1079.09 -922.92)"/></g></svg>