<svg id="Home" xmlns="http://www.w3.org/2000/svg" viewBox="0 0 84.25 84.25"><defs><style>.cls-1{fill:#fff;}</style></defs><title>linkedin-logo</title><g id="Links"><path class="cls-1" d="M798,922.26a42.13,42.13,0,1,0,42.13,42.12A42.12,42.12,0,0,0,798,922.26ZM782.22,992.9H770.37V954.8h11.85Zm-5.92-43.31a6.87,6.87,0,1,1,6.86-6.87A6.87,6.87,0,0,1,776.3,949.59Zm50.27,43.31H814.74V974.37c0-4.42-.08-10.1-6.16-10.1s-7.1,4.81-7.1,9.78V992.9H789.64V954.8H801V960h.16a12.43,12.43,0,0,1,11.21-6.16c12,0,14.2,7.89,14.2,18.15Z" transform="translate(-755.88 -922.26)"/></g></svg>